<svg width="61" height="61" viewBox="0 0 61 61" fill="none" xmlns="http://www.w3.org/2000/svg">
<circle cx="30.1797" cy="30.7158" r="30" fill="#EFF6F1"/>
<path fill-rule="evenodd" clip-rule="evenodd" d="M39.4625 31.0001C39.4625 25.873 35.1454 21.7158 29.8211 21.7158C24.4968 21.7158 20.1797 25.873 20.1797 31.0001C20.1797 35.634 23.7048 39.475 28.3146 40.1721V33.6847H25.866V31.0001H28.3146V28.9547C28.3146 26.6282 29.7544 25.3421 31.9564 25.3421C33.0114 25.3421 34.115 25.5236 34.115 25.5236V27.8087H32.8986C31.7016 27.8087 31.3271 28.524 31.3271 29.2593V31.0001H34.0009L33.5739 33.6847H31.3276V40.173C35.9374 39.4762 39.4625 35.6353 39.4625 31.0001Z" fill="#274C5B"/>
</svg>
