<svg width="61" height="61" viewBox="0 0 61 61" fill="none" xmlns="http://www.w3.org/2000/svg">
<circle cx="30.1797" cy="30.7158" r="30" fill="#EFF6F1"/>
<path d="M33.8382 23.2631C34.9028 23.2661 35.9228 23.6747 36.6755 24.3996C37.4283 25.1244 37.8526 26.1067 37.8558 27.1318V34.8685C37.8526 35.8936 37.4283 36.8758 36.6755 37.6007C35.9228 38.3256 34.9028 38.7342 33.8382 38.7372H25.804C24.7394 38.7342 23.7194 38.3256 22.9667 37.6007C22.2139 36.8758 21.7896 35.8936 21.7864 34.8685V27.1318C21.7896 26.1067 22.2139 25.1244 22.9667 24.3996C23.7194 23.6747 24.7394 23.2661 25.804 23.2631H33.8382ZM33.8382 21.7158H25.804C22.7106 21.7158 20.1797 24.153 20.1797 27.1318V34.8685C20.1797 37.8473 22.7106 40.2845 25.804 40.2845H33.8382C36.9316 40.2845 39.4625 37.8473 39.4625 34.8685V27.1318C39.4625 24.153 36.9316 21.7158 33.8382 21.7158Z" fill="#274C5B"/>
<path d="M35.043 27.1326C34.8046 27.1326 34.5716 27.0645 34.3734 26.937C34.1752 26.8095 34.0208 26.6282 33.9296 26.4162C33.8383 26.2041 33.8145 25.9708 33.861 25.7457C33.9075 25.5205 34.0223 25.3137 34.1908 25.1514C34.3594 24.9891 34.5741 24.8786 34.8079 24.8338C35.0417 24.789 35.284 24.812 35.5042 24.8999C35.7244 24.9877 35.9126 25.1365 36.0451 25.3273C36.1775 25.5182 36.2482 25.7425 36.2482 25.9721C36.2485 26.1246 36.2176 26.2756 36.1571 26.4166C36.0967 26.5575 36.0079 26.6856 35.8959 26.7934C35.784 26.9013 35.651 26.9867 35.5046 27.0449C35.3582 27.1031 35.2014 27.1329 35.043 27.1326ZM29.8207 27.906C30.4564 27.906 31.0778 28.0875 31.6063 28.4276C32.1348 28.7677 32.5468 29.251 32.79 29.8166C33.0333 30.3821 33.0969 31.0044 32.9729 31.6047C32.8489 32.2051 32.5428 32.7565 32.0933 33.1894C31.6438 33.6222 31.0712 33.917 30.4477 34.0364C29.8243 34.1558 29.1781 34.0945 28.5908 33.8603C28.0035 33.626 27.5016 33.2293 27.1484 32.7204C26.7953 32.2114 26.6068 31.6131 26.6068 31.0009C26.6077 30.1804 26.9466 29.3937 27.5491 28.8135C28.1516 28.2333 28.9686 27.9069 29.8207 27.906ZM29.8207 26.3588C28.8673 26.3588 27.9352 26.631 27.1425 27.1411C26.3497 27.6512 25.7318 28.3762 25.367 29.2245C25.0021 30.0727 24.9066 31.0061 25.0926 31.9066C25.2786 32.8071 25.7378 33.6342 26.412 34.2834C27.0861 34.9327 27.9451 35.3748 28.8802 35.5539C29.8154 35.733 30.7846 35.6411 31.6655 35.2897C32.5464 34.9384 33.2993 34.3434 33.829 33.58C34.3587 32.8166 34.6414 31.9191 34.6414 31.0009C34.6414 29.7698 34.1335 28.589 33.2295 27.7184C32.3254 26.8479 31.0992 26.3588 29.8207 26.3588Z" fill="#274C5B"/>
</svg>
