<svg width="61" height="61" viewBox="0 0 61 61" fill="none" xmlns="http://www.w3.org/2000/svg">
<circle cx="30.1797" cy="30.7158" r="30" fill="#EFF6F1"/>
<path d="M29.9763 20.7158C24.5663 20.7158 20.1797 25.1005 20.1797 30.5081C20.1797 34.5168 22.5939 37.9616 26.0445 39.4785C26.0183 38.7965 26.0402 37.9747 26.2151 37.2315C26.4032 36.4359 27.4747 31.8939 27.4747 31.8939C27.4747 31.8939 27.1598 31.2687 27.1598 30.3463C27.1598 28.895 27.9995 27.8108 29.0491 27.8108C29.9413 27.8108 30.3699 28.4797 30.3699 29.2797C30.3699 30.1758 29.797 31.5135 29.504 32.7551C29.2591 33.7955 30.0244 34.6392 31.0522 34.6392C32.9066 34.6392 34.1574 32.2567 34.1574 29.4327C34.1574 27.2863 32.7098 25.6819 30.0813 25.6819C27.1117 25.6819 25.2573 27.8983 25.2573 30.3726C25.2573 31.225 25.511 31.8283 25.9046 32.2917C26.0839 32.5059 26.1102 32.5933 26.0445 32.8381C25.9964 33.0174 25.8915 33.4501 25.8434 33.625C25.7778 33.8742 25.5766 33.9616 25.3535 33.8698C23.9846 33.3102 23.3461 31.8152 23.3461 30.1278C23.3461 27.3475 25.6947 24.012 30.3481 24.012C34.0874 24.012 36.5497 26.718 36.5497 29.6207C36.5497 33.4633 34.4111 36.331 31.2621 36.331C30.2037 36.331 29.211 35.7583 28.8698 35.1113C28.8698 35.1113 28.3013 37.367 28.1788 37.8042C27.9733 38.5605 27.5665 39.3124 27.1948 39.9025C28.0965 40.1684 29.0318 40.3039 29.972 40.3047C35.382 40.3047 39.7686 35.9201 39.7686 30.5125C39.7686 25.1049 35.3863 20.7158 29.9763 20.7158Z" fill="#274C5B"/>
</svg>
