<svg width="61" height="61" viewBox="0 0 61 61" fill="none" xmlns="http://www.w3.org/2000/svg">
<circle cx="30.1797" cy="30.7158" r="30" fill="#EFF6F1"/>
<path d="M40.8399 24.6742C40.0649 25.011 39.2449 25.2328 38.4058 25.3328C39.2876 24.8164 39.9507 23.9961 40.2708 23.0257C39.4372 23.5132 38.5266 23.8553 37.5781 24.0372C37.1787 23.6186 36.6984 23.2857 36.1663 23.0585C35.6342 22.8313 35.0615 22.7148 34.483 22.7158C32.1406 22.7158 30.2451 24.5839 30.2451 26.8866C30.2434 27.2069 30.2801 27.5263 30.3544 27.8378C28.6748 27.7591 27.0301 27.3306 25.5255 26.5798C24.0209 25.829 22.6897 24.7724 21.6169 23.4777C21.2405 24.1122 21.0414 24.8361 21.0405 25.5738C21.0405 27.02 21.7951 28.2984 22.9344 29.0473C22.2594 29.0313 21.5982 28.8526 21.007 28.5265V28.5781C21.007 30.6011 22.4704 32.2841 24.4073 32.6671C24.043 32.7642 23.6677 32.8134 23.2908 32.8135C23.0233 32.814 22.7564 32.788 22.4941 32.736C23.0325 34.3931 24.5997 35.5983 26.4561 35.6327C24.9476 36.7953 23.0956 37.4236 21.1912 37.419C20.8531 37.4185 20.5154 37.3984 20.1797 37.3587C22.1171 38.5958 24.3692 39.2502 26.6678 39.244C34.4739 39.244 38.7385 32.8867 38.7385 27.373C38.7385 27.1922 38.7338 27.0114 38.7252 26.8349C39.5529 26.2462 40.269 25.5145 40.8399 24.6742Z" fill="#274C5B"/>
</svg>
