<svg width="65" height="31" viewBox="0 0 65 31" fill="none" xmlns="http://www.w3.org/2000/svg">
<rect x="0.0898438" width="64" height="31" rx="8" fill="#274C5B"/>
<path d="M15.2588 21H13.5156V10.292H19.5654V11.7715H15.2588V15.1113H19.2871V16.5835H15.2588V21ZM25.4468 12.7383C25.5835 12.7383 25.7324 12.7456 25.8936 12.7603C26.0547 12.7749 26.1938 12.7944 26.311 12.8188L26.1499 14.4302C26.0474 14.4009 25.9204 14.3789 25.769 14.3643C25.6226 14.3496 25.4907 14.3423 25.3735 14.3423C25.0659 14.3423 24.7729 14.3936 24.4946 14.4961C24.2163 14.5938 23.9697 14.7451 23.7549 14.9502C23.54 15.1504 23.3716 15.4019 23.2495 15.7046C23.1274 16.0073 23.0664 16.3589 23.0664 16.7593V21H21.3379V12.8921H22.6855L22.9199 14.3203H23.0005C23.1616 14.0322 23.3618 13.7686 23.6011 13.5293C23.8403 13.29 24.1138 13.0996 24.4214 12.958C24.7339 12.8115 25.0757 12.7383 25.4468 12.7383ZM31.0425 12.7383C31.7651 12.7383 32.3853 12.8872 32.9028 13.1851C33.4204 13.4829 33.8184 13.9053 34.0967 14.4521C34.375 14.999 34.5142 15.6533 34.5142 16.415V17.3379H29.1016C29.1211 18.124 29.3311 18.7295 29.7314 19.1543C30.1367 19.5791 30.7031 19.7915 31.4307 19.7915C31.9482 19.7915 32.4121 19.7427 32.8223 19.645C33.2373 19.5425 33.6646 19.3936 34.104 19.1982V20.5972C33.6987 20.7876 33.2861 20.9268 32.8662 21.0146C32.4463 21.1025 31.9434 21.1465 31.3574 21.1465C30.5615 21.1465 29.8608 20.9927 29.2554 20.6851C28.6548 20.3726 28.1836 19.9087 27.8418 19.2935C27.5049 18.6782 27.3364 17.9141 27.3364 17.001C27.3364 16.0928 27.4902 15.3213 27.7979 14.6865C28.1055 14.0518 28.5376 13.5684 29.0942 13.2363C29.6509 12.9043 30.3003 12.7383 31.0425 12.7383ZM31.0425 14.0347C30.5005 14.0347 30.061 14.2104 29.7241 14.562C29.3921 14.9136 29.1968 15.4287 29.1382 16.1074H32.8296C32.8247 15.7021 32.7563 15.3433 32.6245 15.0308C32.4976 14.7183 32.3022 14.4741 32.0386 14.2983C31.7798 14.1226 31.4478 14.0347 31.0425 14.0347ZM41.9043 18.6855C41.9043 19.2178 41.7749 19.667 41.5161 20.0332C41.2573 20.3994 40.8789 20.6777 40.3809 20.8682C39.8877 21.0537 39.2822 21.1465 38.5645 21.1465C37.998 21.1465 37.5098 21.105 37.0996 21.022C36.6943 20.9438 36.311 20.8218 35.9497 20.6558V19.1689C36.3354 19.3496 36.7676 19.5059 37.2461 19.6377C37.7295 19.7695 38.186 19.8354 38.6157 19.8354C39.1821 19.8354 39.5898 19.7476 39.8389 19.5718C40.0879 19.3911 40.2124 19.1519 40.2124 18.854C40.2124 18.6782 40.1611 18.522 40.0586 18.3853C39.9609 18.2437 39.7754 18.0996 39.502 17.9531C39.2334 17.8018 38.8379 17.6211 38.3154 17.4111C37.8027 17.2061 37.3706 17.001 37.019 16.7959C36.6675 16.5908 36.4014 16.3442 36.2207 16.0562C36.04 15.7632 35.9497 15.3896 35.9497 14.9355C35.9497 14.2178 36.2329 13.6733 36.7993 13.3022C37.3706 12.9263 38.125 12.7383 39.0625 12.7383C39.5605 12.7383 40.0293 12.7896 40.4688 12.8921C40.9131 12.9897 41.3477 13.1338 41.7725 13.3242L41.2305 14.6206C40.8643 14.4595 40.4956 14.3276 40.1245 14.2251C39.7583 14.1177 39.3848 14.064 39.0039 14.064C38.5596 14.064 38.2202 14.1323 37.9858 14.269C37.7563 14.4058 37.6416 14.6011 37.6416 14.855C37.6416 15.0454 37.6978 15.2065 37.8101 15.3384C37.9224 15.4702 38.1152 15.6021 38.3887 15.7339C38.667 15.8657 39.0527 16.0293 39.5459 16.2246C40.0293 16.4102 40.4468 16.6055 40.7983 16.8105C41.1548 17.0107 41.4282 17.2573 41.6187 17.5503C41.8091 17.8433 41.9043 18.2217 41.9043 18.6855ZM45.4858 9.60352V12.4673C45.4858 12.7651 45.4761 13.0557 45.4565 13.3389C45.4419 13.6221 45.4248 13.8418 45.4053 13.998H45.5005C45.6714 13.7148 45.8813 13.4829 46.1304 13.3022C46.3794 13.1167 46.6577 12.9775 46.9653 12.8848C47.2778 12.792 47.6099 12.7456 47.9614 12.7456C48.5815 12.7456 49.1089 12.8506 49.5435 13.0605C49.978 13.2656 50.3101 13.5854 50.5396 14.02C50.7739 14.4546 50.8911 15.0186 50.8911 15.7119V21H49.1699V16.0342C49.1699 15.4043 49.0405 14.9331 48.7817 14.6206C48.5229 14.3032 48.1226 14.1445 47.5806 14.1445C47.0581 14.1445 46.6431 14.2544 46.3354 14.4741C46.0327 14.689 45.8154 15.0088 45.6836 15.4336C45.5518 15.8535 45.4858 16.3662 45.4858 16.9717V21H43.7646V9.60352H45.4858Z" fill="white"/>
</svg>
