<svg width="74" height="31" viewBox="0 0 74 31" fill="none" xmlns="http://www.w3.org/2000/svg">
<rect x="0.179688" width="73" height="31" rx="8" fill="#274C5B"/>
<path d="M18.5669 21L15.4834 12.0571H15.4175C15.4321 12.2573 15.4492 12.5308 15.4688 12.8774C15.4883 13.2241 15.5054 13.5952 15.52 13.9907C15.5347 14.3862 15.542 14.7646 15.542 15.126V21H13.9453V10.292H16.4136L19.3799 18.8394H19.4238L22.4927 10.292H24.9536V21H23.2764V15.0381C23.2764 14.7109 23.2812 14.3569 23.291 13.9761C23.3057 13.5952 23.3203 13.2339 23.335 12.8921C23.3545 12.5503 23.3691 12.2769 23.3789 12.0718H23.3203L20.1196 21H18.5669ZM29.3188 12.8921V21H27.5977V12.8921H29.3188ZM28.4692 9.78662C28.7329 9.78662 28.96 9.85742 29.1504 9.99902C29.3457 10.1406 29.4434 10.3848 29.4434 10.7314C29.4434 11.0732 29.3457 11.3174 29.1504 11.4639C28.96 11.6055 28.7329 11.6763 28.4692 11.6763C28.1958 11.6763 27.9639 11.6055 27.7734 11.4639C27.5879 11.3174 27.4951 11.0732 27.4951 10.7314C27.4951 10.3848 27.5879 10.1406 27.7734 9.99902C27.9639 9.85742 28.1958 9.78662 28.4692 9.78662ZM33.5156 21H31.7871V9.60352H33.5156V21ZM37.7051 21H35.9766V9.60352H37.7051V21ZM43.396 12.7383C44.1187 12.7383 44.7388 12.8872 45.2563 13.1851C45.7739 13.4829 46.1719 13.9053 46.4502 14.4521C46.7285 14.999 46.8677 15.6533 46.8677 16.415V17.3379H41.4551C41.4746 18.124 41.6846 18.7295 42.085 19.1543C42.4902 19.5791 43.0566 19.7915 43.7842 19.7915C44.3018 19.7915 44.7656 19.7427 45.1758 19.645C45.5908 19.5425 46.0181 19.3936 46.4575 19.1982V20.5972C46.0522 20.7876 45.6396 20.9268 45.2197 21.0146C44.7998 21.1025 44.2969 21.1465 43.7109 21.1465C42.915 21.1465 42.2144 20.9927 41.6089 20.6851C41.0083 20.3726 40.5371 19.9087 40.1953 19.2935C39.8584 18.6782 39.6899 17.9141 39.6899 17.001C39.6899 16.0928 39.8438 15.3213 40.1514 14.6865C40.459 14.0518 40.8911 13.5684 41.4478 13.2363C42.0044 12.9043 42.6538 12.7383 43.396 12.7383ZM43.396 14.0347C42.854 14.0347 42.4146 14.2104 42.0776 14.562C41.7456 14.9136 41.5503 15.4287 41.4917 16.1074H45.1831C45.1782 15.7021 45.1099 15.3433 44.978 15.0308C44.8511 14.7183 44.6558 14.4741 44.3921 14.2983C44.1333 14.1226 43.8013 14.0347 43.396 14.0347ZM51.8262 19.7549C52.0508 19.7549 52.2729 19.7354 52.4927 19.6963C52.7124 19.6523 52.9126 19.6011 53.0933 19.5425V20.8462C52.9028 20.9292 52.6562 21 52.3535 21.0586C52.0508 21.1172 51.7358 21.1465 51.4087 21.1465C50.9497 21.1465 50.5371 21.0708 50.1709 20.9194C49.8047 20.7632 49.5142 20.4971 49.2993 20.1211C49.0845 19.7451 48.9771 19.2251 48.9771 18.561V14.2031H47.8711V13.4341L49.0576 12.8262L49.6216 11.0903H50.7056V12.8921H53.0273V14.2031H50.7056V18.5391C50.7056 18.9492 50.8081 19.2544 51.0132 19.4546C51.2183 19.6548 51.4893 19.7549 51.8262 19.7549ZM60.1904 18.6855C60.1904 19.2178 60.061 19.667 59.8022 20.0332C59.5435 20.3994 59.165 20.6777 58.667 20.8682C58.1738 21.0537 57.5684 21.1465 56.8506 21.1465C56.2842 21.1465 55.7959 21.105 55.3857 21.022C54.9805 20.9438 54.5972 20.8218 54.2358 20.6558V19.1689C54.6216 19.3496 55.0537 19.5059 55.5322 19.6377C56.0156 19.7695 56.4722 19.8354 56.9019 19.8354C57.4683 19.8354 57.876 19.7476 58.125 19.5718C58.374 19.3911 58.4985 19.1519 58.4985 18.854C58.4985 18.6782 58.4473 18.522 58.3447 18.3853C58.2471 18.2437 58.0615 18.0996 57.7881 17.9531C57.5195 17.8018 57.124 17.6211 56.6016 17.4111C56.0889 17.2061 55.6567 17.001 55.3052 16.7959C54.9536 16.5908 54.6875 16.3442 54.5068 16.0562C54.3262 15.7632 54.2358 15.3896 54.2358 14.9355C54.2358 14.2178 54.519 13.6733 55.0854 13.3022C55.6567 12.9263 56.4111 12.7383 57.3486 12.7383C57.8467 12.7383 58.3154 12.7896 58.7549 12.8921C59.1992 12.9897 59.6338 13.1338 60.0586 13.3242L59.5166 14.6206C59.1504 14.4595 58.7817 14.3276 58.4106 14.2251C58.0444 14.1177 57.6709 14.064 57.29 14.064C56.8457 14.064 56.5063 14.1323 56.272 14.269C56.0425 14.4058 55.9277 14.6011 55.9277 14.855C55.9277 15.0454 55.9839 15.2065 56.0962 15.3384C56.2085 15.4702 56.4014 15.6021 56.6748 15.7339C56.9531 15.8657 57.3389 16.0293 57.832 16.2246C58.3154 16.4102 58.7329 16.6055 59.0845 16.8105C59.4409 17.0107 59.7144 17.2573 59.9048 17.5503C60.0952 17.8433 60.1904 18.2217 60.1904 18.6855Z" fill="white"/>
</svg>
