<svg width="60" height="31" viewBox="0 0 60 31" fill="none" xmlns="http://www.w3.org/2000/svg">
<rect x="0.0898438" width="59" height="31" rx="8" fill="#274C5B"/>
<path d="M22.6685 21H20.5078L15.2637 12.4526H15.1978C15.2173 12.7407 15.2344 13.0459 15.249 13.3682C15.2686 13.6904 15.2832 14.0225 15.293 14.3643C15.3076 14.7061 15.3198 15.0527 15.3296 15.4043V21H13.7329V10.292H15.8789L21.1157 18.7808H21.167C21.1572 18.5317 21.145 18.2461 21.1304 17.9238C21.1157 17.6016 21.1011 17.2695 21.0864 16.9277C21.0767 16.5811 21.0693 16.2466 21.0645 15.9243V10.292H22.6685V21ZM32.373 12.8921V21H31.0181L30.7837 19.9087H30.6885C30.5176 20.187 30.3003 20.4189 30.0366 20.6045C29.7729 20.7852 29.48 20.9194 29.1577 21.0073C28.8354 21.1001 28.4961 21.1465 28.1396 21.1465C27.5293 21.1465 27.0068 21.0439 26.5723 20.8389C26.1426 20.6289 25.813 20.3066 25.5835 19.8721C25.354 19.4375 25.2393 18.876 25.2393 18.1875V12.8921H26.9678V17.8652C26.9678 18.4951 27.0947 18.9663 27.3486 19.2788C27.6074 19.5913 28.0078 19.7476 28.5498 19.7476C29.0723 19.7476 29.4873 19.6401 29.7949 19.4253C30.1025 19.2104 30.3198 18.8931 30.4468 18.4731C30.5786 18.0532 30.6445 17.5381 30.6445 16.9277V12.8921H32.373ZM37.8589 19.7549C38.0835 19.7549 38.3057 19.7354 38.5254 19.6963C38.7451 19.6523 38.9453 19.6011 39.126 19.5425V20.8462C38.9355 20.9292 38.689 21 38.3862 21.0586C38.0835 21.1172 37.7686 21.1465 37.4414 21.1465C36.9824 21.1465 36.5698 21.0708 36.2036 20.9194C35.8374 20.7632 35.5469 20.4971 35.332 20.1211C35.1172 19.7451 35.0098 19.2251 35.0098 18.561V14.2031H33.9038V13.4341L35.0903 12.8262L35.6543 11.0903H36.7383V12.8921H39.0601V14.2031H36.7383V18.5391C36.7383 18.9492 36.8408 19.2544 37.0459 19.4546C37.251 19.6548 37.522 19.7549 37.8589 19.7549ZM46.2231 18.6855C46.2231 19.2178 46.0938 19.667 45.835 20.0332C45.5762 20.3994 45.1978 20.6777 44.6997 20.8682C44.2065 21.0537 43.6011 21.1465 42.8833 21.1465C42.3169 21.1465 41.8286 21.105 41.4185 21.022C41.0132 20.9438 40.6299 20.8218 40.2686 20.6558V19.1689C40.6543 19.3496 41.0864 19.5059 41.5649 19.6377C42.0483 19.7695 42.5049 19.8354 42.9346 19.8354C43.501 19.8354 43.9087 19.7476 44.1577 19.5718C44.4067 19.3911 44.5312 19.1519 44.5312 18.854C44.5312 18.6782 44.48 18.522 44.3774 18.3853C44.2798 18.2437 44.0942 18.0996 43.8208 17.9531C43.5522 17.8018 43.1567 17.6211 42.6343 17.4111C42.1216 17.2061 41.6895 17.001 41.3379 16.7959C40.9863 16.5908 40.7202 16.3442 40.5396 16.0562C40.3589 15.7632 40.2686 15.3896 40.2686 14.9355C40.2686 14.2178 40.5518 13.6733 41.1182 13.3022C41.6895 12.9263 42.4438 12.7383 43.3813 12.7383C43.8794 12.7383 44.3481 12.7896 44.7876 12.8921C45.2319 12.9897 45.6665 13.1338 46.0913 13.3242L45.5493 14.6206C45.1831 14.4595 44.8145 14.3276 44.4434 14.2251C44.0771 14.1177 43.7036 14.064 43.3228 14.064C42.8784 14.064 42.5391 14.1323 42.3047 14.269C42.0752 14.4058 41.9604 14.6011 41.9604 14.855C41.9604 15.0454 42.0166 15.2065 42.1289 15.3384C42.2412 15.4702 42.4341 15.6021 42.7075 15.7339C42.9858 15.8657 43.3716 16.0293 43.8647 16.2246C44.3481 16.4102 44.7656 16.6055 45.1172 16.8105C45.4736 17.0107 45.7471 17.2573 45.9375 17.5503C46.1279 17.8433 46.2231 18.2217 46.2231 18.6855Z" fill="white"/>
</svg>
