<svg width="65" height="31" viewBox="0 0 65 31" fill="none" xmlns="http://www.w3.org/2000/svg">
<rect x="0.179688" width="64" height="31" rx="8" fill="#274C5B"/>
<path d="M15.3486 21H13.6055V10.292H19.6553V11.7715H15.3486V15.1113H19.377V16.5835H15.3486V21ZM25.5366 12.7383C25.6733 12.7383 25.8223 12.7456 25.9834 12.7603C26.1445 12.7749 26.2837 12.7944 26.4009 12.8188L26.2397 14.4302C26.1372 14.4009 26.0103 14.3789 25.8589 14.3643C25.7124 14.3496 25.5806 14.3423 25.4634 14.3423C25.1558 14.3423 24.8628 14.3936 24.5845 14.4961C24.3062 14.5938 24.0596 14.7451 23.8447 14.9502C23.6299 15.1504 23.4614 15.4019 23.3394 15.7046C23.2173 16.0073 23.1562 16.3589 23.1562 16.7593V21H21.4277V12.8921H22.7754L23.0098 14.3203H23.0903C23.2515 14.0322 23.4517 13.7686 23.6909 13.5293C23.9302 13.29 24.2036 13.0996 24.5112 12.958C24.8237 12.8115 25.1655 12.7383 25.5366 12.7383ZM31.1323 12.7383C31.855 12.7383 32.4751 12.8872 32.9927 13.1851C33.5103 13.4829 33.9082 13.9053 34.1865 14.4521C34.4648 14.999 34.604 15.6533 34.604 16.415V17.3379H29.1914C29.2109 18.124 29.4209 18.7295 29.8213 19.1543C30.2266 19.5791 30.793 19.7915 31.5205 19.7915C32.0381 19.7915 32.502 19.7427 32.9121 19.645C33.3271 19.5425 33.7544 19.3936 34.1938 19.1982V20.5972C33.7886 20.7876 33.376 20.9268 32.9561 21.0146C32.5361 21.1025 32.0332 21.1465 31.4473 21.1465C30.6514 21.1465 29.9507 20.9927 29.3452 20.6851C28.7446 20.3726 28.2734 19.9087 27.9316 19.2935C27.5947 18.6782 27.4263 17.9141 27.4263 17.001C27.4263 16.0928 27.5801 15.3213 27.8877 14.6865C28.1953 14.0518 28.6274 13.5684 29.1841 13.2363C29.7407 12.9043 30.3901 12.7383 31.1323 12.7383ZM31.1323 14.0347C30.5903 14.0347 30.1509 14.2104 29.814 14.562C29.4819 14.9136 29.2866 15.4287 29.228 16.1074H32.9194C32.9146 15.7021 32.8462 15.3433 32.7144 15.0308C32.5874 14.7183 32.3921 14.4741 32.1284 14.2983C31.8696 14.1226 31.5376 14.0347 31.1323 14.0347ZM41.9941 18.6855C41.9941 19.2178 41.8647 19.667 41.606 20.0332C41.3472 20.3994 40.9688 20.6777 40.4707 20.8682C39.9775 21.0537 39.3721 21.1465 38.6543 21.1465C38.0879 21.1465 37.5996 21.105 37.1895 21.022C36.7842 20.9438 36.4009 20.8218 36.0396 20.6558V19.1689C36.4253 19.3496 36.8574 19.5059 37.3359 19.6377C37.8193 19.7695 38.2759 19.8354 38.7056 19.8354C39.272 19.8354 39.6797 19.7476 39.9287 19.5718C40.1777 19.3911 40.3022 19.1519 40.3022 18.854C40.3022 18.6782 40.251 18.522 40.1484 18.3853C40.0508 18.2437 39.8652 18.0996 39.5918 17.9531C39.3232 17.8018 38.9277 17.6211 38.4053 17.4111C37.8926 17.2061 37.4604 17.001 37.1089 16.7959C36.7573 16.5908 36.4912 16.3442 36.3105 16.0562C36.1299 15.7632 36.0396 15.3896 36.0396 14.9355C36.0396 14.2178 36.3228 13.6733 36.8892 13.3022C37.4604 12.9263 38.2148 12.7383 39.1523 12.7383C39.6504 12.7383 40.1191 12.7896 40.5586 12.8921C41.0029 12.9897 41.4375 13.1338 41.8623 13.3242L41.3203 14.6206C40.9541 14.4595 40.5854 14.3276 40.2144 14.2251C39.8481 14.1177 39.4746 14.064 39.0938 14.064C38.6494 14.064 38.3101 14.1323 38.0757 14.269C37.8462 14.4058 37.7314 14.6011 37.7314 14.855C37.7314 15.0454 37.7876 15.2065 37.8999 15.3384C38.0122 15.4702 38.2051 15.6021 38.4785 15.7339C38.7568 15.8657 39.1426 16.0293 39.6357 16.2246C40.1191 16.4102 40.5366 16.6055 40.8882 16.8105C41.2446 17.0107 41.5181 17.2573 41.7085 17.5503C41.8989 17.8433 41.9941 18.2217 41.9941 18.6855ZM45.5757 9.60352V12.4673C45.5757 12.7651 45.5659 13.0557 45.5464 13.3389C45.5317 13.6221 45.5146 13.8418 45.4951 13.998H45.5903C45.7612 13.7148 45.9712 13.4829 46.2202 13.3022C46.4692 13.1167 46.7476 12.9775 47.0552 12.8848C47.3677 12.792 47.6997 12.7456 48.0513 12.7456C48.6714 12.7456 49.1987 12.8506 49.6333 13.0605C50.0679 13.2656 50.3999 13.5854 50.6294 14.02C50.8638 14.4546 50.981 15.0186 50.981 15.7119V21H49.2598V16.0342C49.2598 15.4043 49.1304 14.9331 48.8716 14.6206C48.6128 14.3032 48.2124 14.1445 47.6704 14.1445C47.1479 14.1445 46.7329 14.2544 46.4253 14.4741C46.1226 14.689 45.9053 15.0088 45.7734 15.4336C45.6416 15.8535 45.5757 16.3662 45.5757 16.9717V21H43.8545V9.60352H45.5757Z" fill="white"/>
</svg>
