<svg width="97" height="31" viewBox="0 0 97 31" fill="none" xmlns="http://www.w3.org/2000/svg">
<rect x="0.271484" width="96" height="31" rx="8" fill="#274C5B"/>
<path d="M21.7358 10.292L17.9932 21H16.1328L12.3901 10.292H14.1919L16.4478 17.001C16.5161 17.1963 16.5894 17.4331 16.6675 17.7114C16.7505 17.9897 16.8262 18.2705 16.8945 18.5537C16.9678 18.8369 17.0239 19.0884 17.063 19.3081C17.1021 19.0884 17.1558 18.8369 17.2241 18.5537C17.2974 18.2705 17.373 17.9897 17.4512 17.7114C17.5293 17.4331 17.6025 17.1938 17.6709 16.9937L19.9341 10.292H21.7358ZM26.1963 12.7383C26.9189 12.7383 27.5391 12.8872 28.0566 13.1851C28.5742 13.4829 28.9722 13.9053 29.2505 14.4521C29.5288 14.999 29.668 15.6533 29.668 16.415V17.3379H24.2554C24.2749 18.124 24.4849 18.7295 24.8853 19.1543C25.2905 19.5791 25.8569 19.7915 26.5845 19.7915C27.1021 19.7915 27.5659 19.7427 27.9761 19.645C28.3911 19.5425 28.8184 19.3936 29.2578 19.1982V20.5972C28.8525 20.7876 28.4399 20.9268 28.02 21.0146C27.6001 21.1025 27.0972 21.1465 26.5112 21.1465C25.7153 21.1465 25.0146 20.9927 24.4092 20.6851C23.8086 20.3726 23.3374 19.9087 22.9956 19.2935C22.6587 18.6782 22.4902 17.9141 22.4902 17.001C22.4902 16.0928 22.644 15.3213 22.9517 14.6865C23.2593 14.0518 23.6914 13.5684 24.248 13.2363C24.8047 12.9043 25.4541 12.7383 26.1963 12.7383ZM26.1963 14.0347C25.6543 14.0347 25.2148 14.2104 24.8779 14.562C24.5459 14.9136 24.3506 15.4287 24.292 16.1074H27.9834C27.9785 15.7021 27.9102 15.3433 27.7783 15.0308C27.6514 14.7183 27.4561 14.4741 27.1924 14.2983C26.9336 14.1226 26.6016 14.0347 26.1963 14.0347ZM33.9233 24.6035C32.8247 24.6035 31.9824 24.4058 31.3965 24.0103C30.8105 23.6147 30.5176 23.0605 30.5176 22.3477C30.5176 21.8496 30.6738 21.4272 30.9863 21.0806C31.2988 20.7388 31.7456 20.502 32.3267 20.3701C32.1069 20.2725 31.9165 20.1211 31.7554 19.916C31.5991 19.7061 31.521 19.4741 31.521 19.2202C31.521 18.9175 31.6064 18.6587 31.7773 18.4438C31.9482 18.229 32.2046 18.0215 32.5464 17.8213C32.1216 17.6406 31.7798 17.3477 31.521 16.9424C31.2671 16.5322 31.1401 16.0513 31.1401 15.4995C31.1401 14.9136 31.2646 14.4155 31.5137 14.0054C31.7627 13.5903 32.1265 13.2754 32.605 13.0605C33.0835 12.8408 33.6621 12.731 34.3408 12.731C34.4873 12.731 34.646 12.7407 34.8169 12.7603C34.9927 12.7749 35.1538 12.7944 35.3003 12.8188C35.4517 12.8384 35.5664 12.8604 35.6445 12.8848H38.4497V13.8442L37.0728 14.1006C37.2046 14.2861 37.3096 14.4985 37.3877 14.7378C37.4658 14.9722 37.5049 15.2285 37.5049 15.5068C37.5049 16.3467 37.2144 17.0083 36.6333 17.4917C36.0571 17.9702 35.2612 18.2095 34.2456 18.2095C34.0015 18.1997 33.7646 18.1802 33.5352 18.1509C33.3594 18.2583 33.2251 18.3779 33.1323 18.5098C33.0396 18.6367 32.9932 18.7808 32.9932 18.9419C32.9932 19.0737 33.0396 19.1812 33.1323 19.2642C33.2251 19.3423 33.3618 19.4009 33.5425 19.4399C33.728 19.479 33.9526 19.4985 34.2163 19.4985H35.6152C36.5039 19.4985 37.1826 19.6865 37.6514 20.0625C38.1201 20.4385 38.3545 20.9902 38.3545 21.7178C38.3545 22.6406 37.9736 23.3511 37.2119 23.8491C36.4502 24.3521 35.354 24.6035 33.9233 24.6035ZM33.9893 23.395C34.5898 23.395 35.0952 23.3364 35.5054 23.2192C35.9155 23.1021 36.2256 22.9336 36.4355 22.7139C36.6455 22.499 36.7505 22.2427 36.7505 21.9448C36.7505 21.6812 36.6846 21.4785 36.5527 21.3369C36.4209 21.1953 36.2231 21.0977 35.9595 21.0439C35.6958 20.9902 35.3687 20.9634 34.978 20.9634H33.7036C33.3862 20.9634 33.1055 21.0122 32.8613 21.1099C32.6172 21.2124 32.4268 21.3589 32.29 21.5493C32.1582 21.7397 32.0923 21.9692 32.0923 22.2378C32.0923 22.6089 32.2559 22.8945 32.583 23.0947C32.915 23.2949 33.3838 23.395 33.9893 23.395ZM34.3262 17.0815C34.8291 17.0815 35.2026 16.9448 35.4468 16.6714C35.6909 16.3931 35.813 16.0024 35.813 15.4995C35.813 14.9526 35.686 14.5425 35.4321 14.269C35.1831 13.9956 34.812 13.8589 34.3188 13.8589C33.8354 13.8589 33.4668 13.998 33.2129 14.2764C32.9639 14.5547 32.8394 14.9673 32.8394 15.5142C32.8394 16.0073 32.9639 16.3931 33.2129 16.6714C33.4668 16.9448 33.8379 17.0815 34.3262 17.0815ZM43.1592 12.7383C43.8818 12.7383 44.502 12.8872 45.0195 13.1851C45.5371 13.4829 45.9351 13.9053 46.2134 14.4521C46.4917 14.999 46.6309 15.6533 46.6309 16.415V17.3379H41.2183C41.2378 18.124 41.4478 18.7295 41.8481 19.1543C42.2534 19.5791 42.8198 19.7915 43.5474 19.7915C44.0649 19.7915 44.5288 19.7427 44.939 19.645C45.354 19.5425 45.7812 19.3936 46.2207 19.1982V20.5972C45.8154 20.7876 45.4028 20.9268 44.9829 21.0146C44.563 21.1025 44.0601 21.1465 43.4741 21.1465C42.6782 21.1465 41.9775 20.9927 41.3721 20.6851C40.7715 20.3726 40.3003 19.9087 39.9585 19.2935C39.6216 18.6782 39.4531 17.9141 39.4531 17.001C39.4531 16.0928 39.6069 15.3213 39.9146 14.6865C40.2222 14.0518 40.6543 13.5684 41.2109 13.2363C41.7676 12.9043 42.417 12.7383 43.1592 12.7383ZM43.1592 14.0347C42.6172 14.0347 42.1777 14.2104 41.8408 14.562C41.5088 14.9136 41.3135 15.4287 41.2549 16.1074H44.9463C44.9414 15.7021 44.873 15.3433 44.7412 15.0308C44.6143 14.7183 44.4189 14.4741 44.1553 14.2983C43.8965 14.1226 43.5645 14.0347 43.1592 14.0347ZM51.5894 19.7549C51.814 19.7549 52.0361 19.7354 52.2559 19.6963C52.4756 19.6523 52.6758 19.6011 52.8564 19.5425V20.8462C52.666 20.9292 52.4194 21 52.1167 21.0586C51.814 21.1172 51.499 21.1465 51.1719 21.1465C50.7129 21.1465 50.3003 21.0708 49.9341 20.9194C49.5679 20.7632 49.2773 20.4971 49.0625 20.1211C48.8477 19.7451 48.7402 19.2251 48.7402 18.561V14.2031H47.6343V13.4341L48.8208 12.8262L49.3848 11.0903H50.4688V12.8921H52.7905V14.2031H50.4688V18.5391C50.4688 18.9492 50.5713 19.2544 50.7764 19.4546C50.9814 19.6548 51.2524 19.7549 51.5894 19.7549ZM57.6831 12.7383C58.7085 12.7383 59.4824 12.9653 60.0049 13.4194C60.5322 13.8735 60.7959 14.5815 60.7959 15.5435V21H59.5728L59.2432 19.8501H59.1846C58.9551 20.1431 58.7183 20.3848 58.4741 20.5752C58.23 20.7656 57.9468 20.9072 57.6245 21C57.3071 21.0977 56.9189 21.1465 56.46 21.1465C55.9766 21.1465 55.5444 21.0586 55.1636 20.8828C54.7827 20.7021 54.4824 20.4287 54.2627 20.0625C54.043 19.6963 53.9331 19.2324 53.9331 18.6709C53.9331 17.8359 54.2432 17.2085 54.8633 16.7886C55.4883 16.3687 56.4307 16.1367 57.6904 16.0928L59.0967 16.0415V15.6167C59.0967 15.0552 58.9648 14.6548 58.7012 14.4155C58.4424 14.1763 58.0762 14.0566 57.6025 14.0566C57.1973 14.0566 56.8042 14.1152 56.4233 14.2324C56.0425 14.3496 55.6714 14.4937 55.3101 14.6646L54.7534 13.4487C55.1489 13.2388 55.5981 13.0679 56.1011 12.936C56.6089 12.8042 57.1362 12.7383 57.6831 12.7383ZM59.0894 17.1255L58.042 17.1621C57.1826 17.1914 56.5796 17.3379 56.2329 17.6016C55.8862 17.8652 55.7129 18.2266 55.7129 18.6855C55.7129 19.0859 55.8325 19.3789 56.0718 19.5645C56.311 19.7451 56.626 19.8354 57.0166 19.8354C57.6123 19.8354 58.1055 19.667 58.4961 19.3301C58.8916 18.9883 59.0894 18.4878 59.0894 17.8286V17.1255ZM64.9268 9.60352V12.3501C64.9268 12.6675 64.917 12.98 64.8975 13.2876C64.8828 13.5903 64.8682 13.8271 64.8535 13.998H64.9268C65.1465 13.6465 65.4517 13.3511 65.8423 13.1118C66.2378 12.8677 66.7432 12.7456 67.3584 12.7456C68.3203 12.7456 69.0942 13.0996 69.6802 13.8076C70.2661 14.5107 70.5591 15.5532 70.5591 16.9351C70.5591 17.853 70.4248 18.6245 70.1562 19.2495C69.8877 19.8745 69.5093 20.3481 69.021 20.6704C68.5376 20.9878 67.9688 21.1465 67.3145 21.1465C66.6992 21.1465 66.2012 21.0342 65.8203 20.8096C65.4443 20.5801 65.1489 20.314 64.9341 20.0112H64.8096L64.4946 21H63.2056V9.60352H64.9268ZM66.9043 14.1445C66.416 14.1445 66.0278 14.2422 65.7397 14.4375C65.4565 14.6328 65.2515 14.9258 65.1245 15.3164C64.9976 15.7021 64.9316 16.1929 64.9268 16.7886V16.9424C64.9268 17.8457 65.0684 18.5366 65.3516 19.0151C65.6396 19.4937 66.1621 19.7329 66.9189 19.7329C67.5195 19.7329 67.981 19.4912 68.3032 19.0078C68.6255 18.5195 68.7866 17.8213 68.7866 16.9131C68.7866 15.9951 68.6255 15.3042 68.3032 14.8403C67.9858 14.3765 67.5195 14.1445 66.9043 14.1445ZM74.2798 21H72.5513V9.60352H74.2798V21ZM79.9707 12.7383C80.6934 12.7383 81.3135 12.8872 81.8311 13.1851C82.3486 13.4829 82.7466 13.9053 83.0249 14.4521C83.3032 14.999 83.4424 15.6533 83.4424 16.415V17.3379H78.0298C78.0493 18.124 78.2593 18.7295 78.6597 19.1543C79.0649 19.5791 79.6313 19.7915 80.3589 19.7915C80.8765 19.7915 81.3403 19.7427 81.7505 19.645C82.1655 19.5425 82.5928 19.3936 83.0322 19.1982V20.5972C82.627 20.7876 82.2144 20.9268 81.7944 21.0146C81.3745 21.1025 80.8716 21.1465 80.2856 21.1465C79.4897 21.1465 78.7891 20.9927 78.1836 20.6851C77.583 20.3726 77.1118 19.9087 76.77 19.2935C76.4331 18.6782 76.2646 17.9141 76.2646 17.001C76.2646 16.0928 76.4185 15.3213 76.7261 14.6865C77.0337 14.0518 77.4658 13.5684 78.0225 13.2363C78.5791 12.9043 79.2285 12.7383 79.9707 12.7383ZM79.9707 14.0347C79.4287 14.0347 78.9893 14.2104 78.6523 14.562C78.3203 14.9136 78.125 15.4287 78.0664 16.1074H81.7578C81.7529 15.7021 81.6846 15.3433 81.5527 15.0308C81.4258 14.7183 81.2305 14.4741 80.9668 14.2983C80.708 14.1226 80.376 14.0347 79.9707 14.0347Z" fill="white"/>
</svg>
