<svg width="96" height="31" viewBox="0 0 96 31" fill="none" xmlns="http://www.w3.org/2000/svg">
<rect width="96" height="31" rx="8" fill="#274C5B"/>
<path d="M21.4644 10.292L17.7217 21H15.8613L12.1187 10.292H13.9204L16.1763 17.001C16.2446 17.1963 16.3179 17.4331 16.396 17.7114C16.479 17.9897 16.5547 18.2705 16.623 18.5537C16.6963 18.8369 16.7524 19.0884 16.7915 19.3081C16.8306 19.0884 16.8843 18.8369 16.9526 18.5537C17.0259 18.2705 17.1016 17.9897 17.1797 17.7114C17.2578 17.4331 17.3311 17.1938 17.3994 16.9937L19.6626 10.292H21.4644ZM25.9248 12.7383C26.6475 12.7383 27.2676 12.8872 27.7852 13.1851C28.3027 13.4829 28.7007 13.9053 28.979 14.4521C29.2573 14.999 29.3965 15.6533 29.3965 16.415V17.3379H23.9839C24.0034 18.124 24.2134 18.7295 24.6138 19.1543C25.019 19.5791 25.5854 19.7915 26.313 19.7915C26.8306 19.7915 27.2944 19.7427 27.7046 19.645C28.1196 19.5425 28.5469 19.3936 28.9863 19.1982V20.5972C28.5811 20.7876 28.1685 20.9268 27.7485 21.0146C27.3286 21.1025 26.8257 21.1465 26.2397 21.1465C25.4438 21.1465 24.7432 20.9927 24.1377 20.6851C23.5371 20.3726 23.0659 19.9087 22.7241 19.2935C22.3872 18.6782 22.2188 17.9141 22.2188 17.001C22.2188 16.0928 22.3726 15.3213 22.6802 14.6865C22.9878 14.0518 23.4199 13.5684 23.9766 13.2363C24.5332 12.9043 25.1826 12.7383 25.9248 12.7383ZM25.9248 14.0347C25.3828 14.0347 24.9434 14.2104 24.6064 14.562C24.2744 14.9136 24.0791 15.4287 24.0205 16.1074H27.7119C27.707 15.7021 27.6387 15.3433 27.5068 15.0308C27.3799 14.7183 27.1846 14.4741 26.9209 14.2983C26.6621 14.1226 26.3301 14.0347 25.9248 14.0347ZM33.6519 24.6035C32.5532 24.6035 31.7109 24.4058 31.125 24.0103C30.5391 23.6147 30.2461 23.0605 30.2461 22.3477C30.2461 21.8496 30.4023 21.4272 30.7148 21.0806C31.0273 20.7388 31.4741 20.502 32.0552 20.3701C31.8354 20.2725 31.645 20.1211 31.4839 19.916C31.3276 19.7061 31.2495 19.4741 31.2495 19.2202C31.2495 18.9175 31.335 18.6587 31.5059 18.4438C31.6768 18.229 31.9331 18.0215 32.2749 17.8213C31.8501 17.6406 31.5083 17.3477 31.2495 16.9424C30.9956 16.5322 30.8687 16.0513 30.8687 15.4995C30.8687 14.9136 30.9932 14.4155 31.2422 14.0054C31.4912 13.5903 31.855 13.2754 32.3335 13.0605C32.812 12.8408 33.3906 12.731 34.0693 12.731C34.2158 12.731 34.3745 12.7407 34.5454 12.7603C34.7212 12.7749 34.8823 12.7944 35.0288 12.8188C35.1802 12.8384 35.2949 12.8604 35.373 12.8848H38.1782V13.8442L36.8013 14.1006C36.9331 14.2861 37.0381 14.4985 37.1162 14.7378C37.1943 14.9722 37.2334 15.2285 37.2334 15.5068C37.2334 16.3467 36.9429 17.0083 36.3618 17.4917C35.7856 17.9702 34.9897 18.2095 33.9741 18.2095C33.73 18.1997 33.4932 18.1802 33.2637 18.1509C33.0879 18.2583 32.9536 18.3779 32.8608 18.5098C32.7681 18.6367 32.7217 18.7808 32.7217 18.9419C32.7217 19.0737 32.7681 19.1812 32.8608 19.2642C32.9536 19.3423 33.0903 19.4009 33.271 19.4399C33.4565 19.479 33.6812 19.4985 33.9448 19.4985H35.3438C36.2324 19.4985 36.9111 19.6865 37.3799 20.0625C37.8486 20.4385 38.083 20.9902 38.083 21.7178C38.083 22.6406 37.7021 23.3511 36.9404 23.8491C36.1787 24.3521 35.0825 24.6035 33.6519 24.6035ZM33.7178 23.395C34.3184 23.395 34.8237 23.3364 35.2339 23.2192C35.644 23.1021 35.9541 22.9336 36.1641 22.7139C36.374 22.499 36.479 22.2427 36.479 21.9448C36.479 21.6812 36.4131 21.4785 36.2812 21.3369C36.1494 21.1953 35.9517 21.0977 35.688 21.0439C35.4243 20.9902 35.0972 20.9634 34.7065 20.9634H33.4321C33.1147 20.9634 32.834 21.0122 32.5898 21.1099C32.3457 21.2124 32.1553 21.3589 32.0186 21.5493C31.8867 21.7397 31.8208 21.9692 31.8208 22.2378C31.8208 22.6089 31.9844 22.8945 32.3115 23.0947C32.6436 23.2949 33.1123 23.395 33.7178 23.395ZM34.0547 17.0815C34.5576 17.0815 34.9312 16.9448 35.1753 16.6714C35.4194 16.3931 35.5415 16.0024 35.5415 15.4995C35.5415 14.9526 35.4146 14.5425 35.1606 14.269C34.9116 13.9956 34.5405 13.8589 34.0474 13.8589C33.564 13.8589 33.1953 13.998 32.9414 14.2764C32.6924 14.5547 32.5679 14.9673 32.5679 15.5142C32.5679 16.0073 32.6924 16.3931 32.9414 16.6714C33.1953 16.9448 33.5664 17.0815 34.0547 17.0815ZM42.8877 12.7383C43.6104 12.7383 44.2305 12.8872 44.748 13.1851C45.2656 13.4829 45.6636 13.9053 45.9419 14.4521C46.2202 14.999 46.3594 15.6533 46.3594 16.415V17.3379H40.9468C40.9663 18.124 41.1763 18.7295 41.5767 19.1543C41.9819 19.5791 42.5483 19.7915 43.2759 19.7915C43.7935 19.7915 44.2573 19.7427 44.6675 19.645C45.0825 19.5425 45.5098 19.3936 45.9492 19.1982V20.5972C45.5439 20.7876 45.1313 20.9268 44.7114 21.0146C44.2915 21.1025 43.7886 21.1465 43.2026 21.1465C42.4067 21.1465 41.7061 20.9927 41.1006 20.6851C40.5 20.3726 40.0288 19.9087 39.687 19.2935C39.3501 18.6782 39.1816 17.9141 39.1816 17.001C39.1816 16.0928 39.3354 15.3213 39.6431 14.6865C39.9507 14.0518 40.3828 13.5684 40.9395 13.2363C41.4961 12.9043 42.1455 12.7383 42.8877 12.7383ZM42.8877 14.0347C42.3457 14.0347 41.9062 14.2104 41.5693 14.562C41.2373 14.9136 41.042 15.4287 40.9834 16.1074H44.6748C44.6699 15.7021 44.6016 15.3433 44.4697 15.0308C44.3428 14.7183 44.1475 14.4741 43.8838 14.2983C43.625 14.1226 43.293 14.0347 42.8877 14.0347ZM51.3179 19.7549C51.5425 19.7549 51.7646 19.7354 51.9844 19.6963C52.2041 19.6523 52.4043 19.6011 52.585 19.5425V20.8462C52.3945 20.9292 52.1479 21 51.8452 21.0586C51.5425 21.1172 51.2275 21.1465 50.9004 21.1465C50.4414 21.1465 50.0288 21.0708 49.6626 20.9194C49.2964 20.7632 49.0059 20.4971 48.791 20.1211C48.5762 19.7451 48.4688 19.2251 48.4688 18.561V14.2031H47.3628V13.4341L48.5493 12.8262L49.1133 11.0903H50.1973V12.8921H52.519V14.2031H50.1973V18.5391C50.1973 18.9492 50.2998 19.2544 50.5049 19.4546C50.71 19.6548 50.981 19.7549 51.3179 19.7549ZM57.4116 12.7383C58.437 12.7383 59.2109 12.9653 59.7334 13.4194C60.2607 13.8735 60.5244 14.5815 60.5244 15.5435V21H59.3013L58.9717 19.8501H58.9131C58.6836 20.1431 58.4468 20.3848 58.2026 20.5752C57.9585 20.7656 57.6753 20.9072 57.353 21C57.0356 21.0977 56.6475 21.1465 56.1885 21.1465C55.7051 21.1465 55.2729 21.0586 54.8921 20.8828C54.5112 20.7021 54.2109 20.4287 53.9912 20.0625C53.7715 19.6963 53.6616 19.2324 53.6616 18.6709C53.6616 17.8359 53.9717 17.2085 54.5918 16.7886C55.2168 16.3687 56.1592 16.1367 57.4189 16.0928L58.8252 16.0415V15.6167C58.8252 15.0552 58.6934 14.6548 58.4297 14.4155C58.1709 14.1763 57.8047 14.0566 57.3311 14.0566C56.9258 14.0566 56.5327 14.1152 56.1519 14.2324C55.771 14.3496 55.3999 14.4937 55.0386 14.6646L54.4819 13.4487C54.8774 13.2388 55.3267 13.0679 55.8296 12.936C56.3374 12.8042 56.8647 12.7383 57.4116 12.7383ZM58.8179 17.1255L57.7705 17.1621C56.9111 17.1914 56.3081 17.3379 55.9614 17.6016C55.6147 17.8652 55.4414 18.2266 55.4414 18.6855C55.4414 19.0859 55.561 19.3789 55.8003 19.5645C56.0396 19.7451 56.3545 19.8354 56.7451 19.8354C57.3408 19.8354 57.834 19.667 58.2246 19.3301C58.6201 18.9883 58.8179 18.4878 58.8179 17.8286V17.1255ZM64.6553 9.60352V12.3501C64.6553 12.6675 64.6455 12.98 64.626 13.2876C64.6113 13.5903 64.5967 13.8271 64.582 13.998H64.6553C64.875 13.6465 65.1802 13.3511 65.5708 13.1118C65.9663 12.8677 66.4717 12.7456 67.0869 12.7456C68.0488 12.7456 68.8228 13.0996 69.4087 13.8076C69.9946 14.5107 70.2876 15.5532 70.2876 16.9351C70.2876 17.853 70.1533 18.6245 69.8848 19.2495C69.6162 19.8745 69.2378 20.3481 68.7495 20.6704C68.2661 20.9878 67.6973 21.1465 67.043 21.1465C66.4277 21.1465 65.9297 21.0342 65.5488 20.8096C65.1729 20.5801 64.8774 20.314 64.6626 20.0112H64.5381L64.2231 21H62.9341V9.60352H64.6553ZM66.6328 14.1445C66.1445 14.1445 65.7563 14.2422 65.4683 14.4375C65.1851 14.6328 64.98 14.9258 64.853 15.3164C64.7261 15.7021 64.6602 16.1929 64.6553 16.7886V16.9424C64.6553 17.8457 64.7969 18.5366 65.0801 19.0151C65.3682 19.4937 65.8906 19.7329 66.6475 19.7329C67.248 19.7329 67.7095 19.4912 68.0317 19.0078C68.354 18.5195 68.5151 17.8213 68.5151 16.9131C68.5151 15.9951 68.354 15.3042 68.0317 14.8403C67.7144 14.3765 67.248 14.1445 66.6328 14.1445ZM74.0083 21H72.2798V9.60352H74.0083V21ZM79.6992 12.7383C80.4219 12.7383 81.042 12.8872 81.5596 13.1851C82.0771 13.4829 82.4751 13.9053 82.7534 14.4521C83.0317 14.999 83.1709 15.6533 83.1709 16.415V17.3379H77.7583C77.7778 18.124 77.9878 18.7295 78.3882 19.1543C78.7935 19.5791 79.3599 19.7915 80.0874 19.7915C80.605 19.7915 81.0688 19.7427 81.479 19.645C81.894 19.5425 82.3213 19.3936 82.7607 19.1982V20.5972C82.3555 20.7876 81.9429 20.9268 81.5229 21.0146C81.103 21.1025 80.6001 21.1465 80.0142 21.1465C79.2183 21.1465 78.5176 20.9927 77.9121 20.6851C77.3115 20.3726 76.8403 19.9087 76.4985 19.2935C76.1616 18.6782 75.9932 17.9141 75.9932 17.001C75.9932 16.0928 76.147 15.3213 76.4546 14.6865C76.7622 14.0518 77.1943 13.5684 77.751 13.2363C78.3076 12.9043 78.957 12.7383 79.6992 12.7383ZM79.6992 14.0347C79.1572 14.0347 78.7178 14.2104 78.3809 14.562C78.0488 14.9136 77.8535 15.4287 77.7949 16.1074H81.4863C81.4814 15.7021 81.4131 15.3433 81.2812 15.0308C81.1543 14.7183 80.959 14.4741 80.6953 14.2983C80.4365 14.1226 80.1045 14.0347 79.6992 14.0347Z" fill="white"/>
</svg>
