<svg width="27" height="24" viewBox="0 0 27 24" fill="none" xmlns="http://www.w3.org/2000/svg">
<path d="M11.566 23.0001C12.241 23.0001 12.7882 22.4529 12.7882 21.7779C12.7882 21.1029 12.241 20.5557 11.566 20.5557C10.891 20.5557 10.3438 21.1029 10.3438 21.7779C10.3438 22.4529 10.891 23.0001 11.566 23.0001Z" fill="white" stroke="white" stroke-width="1.5" stroke-linecap="round" stroke-linejoin="round"/>
<path d="M20.1207 23.0001C20.7957 23.0001 21.3429 22.4529 21.3429 21.7779C21.3429 21.1029 20.7957 20.5557 20.1207 20.5557C19.4456 20.5557 18.8984 21.1029 18.8984 21.7779C18.8984 22.4529 19.4456 23.0001 20.1207 23.0001Z" fill="white" stroke="white" stroke-width="1.5" stroke-linecap="round" stroke-linejoin="round"/>
<path d="M1.78906 1H5.57096L8.40738 17.0731H23.535" stroke="white" stroke-width="2" stroke-linecap="round" stroke-linejoin="round"/>
<path d="M7.89929 13.1837L23.1465 13.2907C23.2558 13.2908 23.3618 13.2529 23.4464 13.1837C23.5309 13.1144 23.5889 13.0179 23.6103 12.9107L25.3122 4.40145C25.3259 4.33283 25.3243 4.26203 25.3073 4.19414C25.2904 4.12625 25.2585 4.06297 25.2142 4.00886C25.1698 3.95476 25.1139 3.91118 25.0507 3.88128C24.9874 3.85138 24.9183 3.83589 24.8483 3.83594L6.35545 3.83594" stroke="white" stroke-width="2" stroke-linecap="round" stroke-linejoin="round"/>
</svg>
