<svg width="39" height="56" viewBox="0 0 39 56" fill="none" xmlns="http://www.w3.org/2000/svg">
<path d="M1.85156 42.0684H19.2919H36.7322" stroke="#7EB693" stroke-width="2" stroke-miterlimit="10"/>
<path d="M5.78906 48.5L19.2891 48.5L32.7891 48.5" stroke="#7EB693" stroke-width="2" stroke-miterlimit="10"/>
<path d="M18.7891 1.50002L18.7891 8.50002L18.7891 15.5" stroke="#7EB693" stroke-width="2" stroke-miterlimit="10"/>
<path d="M18.8672 14.7842V41.2158" stroke="#7EB693" stroke-width="2" stroke-miterlimit="10"/>
<path d="M29.9269 4.55275L18.8672 15.637" stroke="#7EB693" stroke-width="2" stroke-miterlimit="10"/>
<path d="M34.1806 8.81593L18.8672 24.1633" stroke="#7EB693" stroke-width="2" stroke-miterlimit="10"/>
<path d="M36.7329 15.6367L18.8672 32.6894" stroke="#7EB693" stroke-width="2" stroke-miterlimit="10"/>
<path d="M37.5836 23.3106L18.8672 42.0685" stroke="#7EB693" stroke-width="2" stroke-miterlimit="10"/>
<path d="M37.584 31.8369L27.375 42.0685" stroke="#7EB693" stroke-width="2" stroke-miterlimit="10"/>
<path d="M1 31.8369L11.209 42.0685" stroke="#7EB693" stroke-width="2" stroke-miterlimit="10"/>
<path d="M8.65625 4.55275L18.8652 15.637" stroke="#7EB693" stroke-width="2" stroke-miterlimit="10"/>
<path d="M4.40234 8.81593L18.865 24.1633" stroke="#7EB693" stroke-width="2" stroke-miterlimit="10"/>
<path d="M1.85156 14.7842L18.8665 32.6895" stroke="#7EB693" stroke-width="2" stroke-miterlimit="10"/>
<path d="M1 22.458L18.8657 41.2159" stroke="#7EB693" stroke-width="2" stroke-miterlimit="10"/>
<path d="M19.291 54.8579C9.19019 54.8579 1 46.4056 1 35.9772V20.0228C1 9.5963 9.19019 1.14211 19.291 1.14211C29.3937 1.14211 37.5821 9.5963 37.5821 20.0228V35.9772C37.5839 46.4056 29.3937 54.8579 19.291 54.8579Z" stroke="#7EB693" stroke-width="2" stroke-miterlimit="10"/>
</svg>
