<svg width="23" height="22" viewBox="0 0 23 22" fill="none" xmlns="http://www.w3.org/2000/svg">
<path d="M16.4872 2.28838C17.72 2.29192 18.9012 2.76508 19.773 3.60451C20.6447 4.44395 21.136 5.58145 21.1397 6.76858V15.728C21.136 16.9152 20.6447 18.0527 19.773 18.8921C18.9012 19.7315 17.72 20.2047 16.4872 20.2082H7.18315C5.95036 20.2047 4.76911 19.7315 3.89739 18.8921C3.02567 18.0527 2.53431 16.9152 2.53063 15.728V6.76858C2.53431 5.58145 3.02567 4.44395 3.89739 3.60451C4.76911 2.76508 5.95036 2.29192 7.18315 2.28838H16.4872ZM16.4872 0.496582H7.18315C3.6008 0.496582 0.669922 3.31891 0.669922 6.76858V15.728C0.669922 19.1777 3.6008 22 7.18315 22H16.4872C20.0695 22 23.0004 19.1777 23.0004 15.728V6.76858C23.0004 3.31891 20.0695 0.496582 16.4872 0.496582Z" fill="#274C5B"/>
<path d="M17.8823 6.76923C17.6062 6.76923 17.3364 6.69041 17.1069 6.54273C16.8774 6.39506 16.6985 6.18516 16.5928 5.93958C16.4872 5.694 16.4596 5.42377 16.5134 5.16307C16.5673 4.90237 16.7002 4.66289 16.8954 4.47494C17.0906 4.28698 17.3392 4.15898 17.61 4.10712C17.8807 4.05527 18.1613 4.08188 18.4164 4.1836C18.6714 4.28532 18.8893 4.45758 19.0427 4.6786C19.1961 4.89961 19.2779 5.15945 19.2779 5.42526C19.2783 5.60186 19.2425 5.7768 19.1725 5.94003C19.1025 6.10326 18.9997 6.25156 18.87 6.37644C18.7403 6.50131 18.5863 6.60029 18.4168 6.6677C18.2473 6.73511 18.0656 6.76961 17.8823 6.76923ZM11.8346 7.66489C12.5707 7.66489 13.2903 7.87509 13.9024 8.26891C14.5144 8.66273 14.9915 9.22249 15.2732 9.87739C15.5549 10.5323 15.6286 11.2529 15.485 11.9482C15.3414 12.6434 14.9869 13.282 14.4664 13.7833C13.9459 14.2845 13.2827 14.6259 12.5607 14.7642C11.8387 14.9024 11.0904 14.8315 10.4103 14.5602C9.73017 14.2889 9.14889 13.8296 8.73992 13.2402C8.33095 12.6508 8.11266 11.9578 8.11266 11.249C8.11372 10.2987 8.50619 9.38768 9.20395 8.71576C9.90172 8.04384 10.8478 7.6659 11.8346 7.66489ZM11.8346 5.87309C10.7304 5.87309 9.6511 6.18838 8.73304 6.77909C7.81498 7.3698 7.09944 8.20939 6.67691 9.1917C6.25437 10.174 6.14382 11.2549 6.35922 12.2977C6.57463 13.3406 7.10632 14.2984 7.88707 15.0503C8.66781 15.8021 9.66254 16.3141 10.7455 16.5215C11.8284 16.729 12.9509 16.6225 13.971 16.2156C14.991 15.8087 15.8629 15.1197 16.4764 14.2356C17.0898 13.3516 17.4172 12.3122 17.4172 11.249C17.4172 9.82319 16.829 8.45582 15.7821 7.44765C14.7351 6.43948 13.3152 5.87309 11.8346 5.87309Z" fill="#274C5B"/>
</svg>
