<svg width="73" height="31" viewBox="0 0 73 31" fill="none" xmlns="http://www.w3.org/2000/svg">
<rect width="73" height="31" rx="8" fill="#274C5B"/>
<path d="M18.3872 21L15.3037 12.0571H15.2378C15.2524 12.2573 15.2695 12.5308 15.2891 12.8774C15.3086 13.2241 15.3257 13.5952 15.3403 13.9907C15.355 14.3862 15.3623 14.7646 15.3623 15.126V21H13.7656V10.292H16.2339L19.2002 18.8394H19.2441L22.313 10.292H24.7739V21H23.0967V15.0381C23.0967 14.7109 23.1016 14.3569 23.1113 13.9761C23.126 13.5952 23.1406 13.2339 23.1553 12.8921C23.1748 12.5503 23.1895 12.2769 23.1992 12.0718H23.1406L19.9399 21H18.3872ZM29.1392 12.8921V21H27.418V12.8921H29.1392ZM28.2896 9.78662C28.5532 9.78662 28.7803 9.85742 28.9707 9.99902C29.166 10.1406 29.2637 10.3848 29.2637 10.7314C29.2637 11.0732 29.166 11.3174 28.9707 11.4639C28.7803 11.6055 28.5532 11.6763 28.2896 11.6763C28.0161 11.6763 27.7842 11.6055 27.5938 11.4639C27.4082 11.3174 27.3154 11.0732 27.3154 10.7314C27.3154 10.3848 27.4082 10.1406 27.5938 9.99902C27.7842 9.85742 28.0161 9.78662 28.2896 9.78662ZM33.3359 21H31.6074V9.60352H33.3359V21ZM37.5254 21H35.7969V9.60352H37.5254V21ZM43.2163 12.7383C43.939 12.7383 44.5591 12.8872 45.0767 13.1851C45.5942 13.4829 45.9922 13.9053 46.2705 14.4521C46.5488 14.999 46.688 15.6533 46.688 16.415V17.3379H41.2754C41.2949 18.124 41.5049 18.7295 41.9053 19.1543C42.3105 19.5791 42.877 19.7915 43.6045 19.7915C44.1221 19.7915 44.5859 19.7427 44.9961 19.645C45.4111 19.5425 45.8384 19.3936 46.2778 19.1982V20.5972C45.8726 20.7876 45.46 20.9268 45.04 21.0146C44.6201 21.1025 44.1172 21.1465 43.5312 21.1465C42.7354 21.1465 42.0347 20.9927 41.4292 20.6851C40.8286 20.3726 40.3574 19.9087 40.0156 19.2935C39.6787 18.6782 39.5103 17.9141 39.5103 17.001C39.5103 16.0928 39.6641 15.3213 39.9717 14.6865C40.2793 14.0518 40.7114 13.5684 41.2681 13.2363C41.8247 12.9043 42.4741 12.7383 43.2163 12.7383ZM43.2163 14.0347C42.6743 14.0347 42.2349 14.2104 41.8979 14.562C41.5659 14.9136 41.3706 15.4287 41.312 16.1074H45.0034C44.9985 15.7021 44.9302 15.3433 44.7983 15.0308C44.6714 14.7183 44.4761 14.4741 44.2124 14.2983C43.9536 14.1226 43.6216 14.0347 43.2163 14.0347ZM51.6465 19.7549C51.8711 19.7549 52.0933 19.7354 52.313 19.6963C52.5327 19.6523 52.7329 19.6011 52.9136 19.5425V20.8462C52.7231 20.9292 52.4766 21 52.1738 21.0586C51.8711 21.1172 51.5562 21.1465 51.229 21.1465C50.77 21.1465 50.3574 21.0708 49.9912 20.9194C49.625 20.7632 49.3345 20.4971 49.1196 20.1211C48.9048 19.7451 48.7974 19.2251 48.7974 18.561V14.2031H47.6914V13.4341L48.8779 12.8262L49.4419 11.0903H50.5259V12.8921H52.8477V14.2031H50.5259V18.5391C50.5259 18.9492 50.6284 19.2544 50.8335 19.4546C51.0386 19.6548 51.3096 19.7549 51.6465 19.7549ZM60.0107 18.6855C60.0107 19.2178 59.8813 19.667 59.6226 20.0332C59.3638 20.3994 58.9854 20.6777 58.4873 20.8682C57.9941 21.0537 57.3887 21.1465 56.6709 21.1465C56.1045 21.1465 55.6162 21.105 55.2061 21.022C54.8008 20.9438 54.4175 20.8218 54.0562 20.6558V19.1689C54.4419 19.3496 54.874 19.5059 55.3525 19.6377C55.8359 19.7695 56.2925 19.8354 56.7222 19.8354C57.2886 19.8354 57.6963 19.7476 57.9453 19.5718C58.1943 19.3911 58.3188 19.1519 58.3188 18.854C58.3188 18.6782 58.2676 18.522 58.165 18.3853C58.0674 18.2437 57.8818 18.0996 57.6084 17.9531C57.3398 17.8018 56.9443 17.6211 56.4219 17.4111C55.9092 17.2061 55.4771 17.001 55.1255 16.7959C54.7739 16.5908 54.5078 16.3442 54.3271 16.0562C54.1465 15.7632 54.0562 15.3896 54.0562 14.9355C54.0562 14.2178 54.3394 13.6733 54.9058 13.3022C55.4771 12.9263 56.2314 12.7383 57.1689 12.7383C57.667 12.7383 58.1357 12.7896 58.5752 12.8921C59.0195 12.9897 59.4541 13.1338 59.8789 13.3242L59.3369 14.6206C58.9707 14.4595 58.6021 14.3276 58.231 14.2251C57.8647 14.1177 57.4912 14.064 57.1104 14.064C56.666 14.064 56.3267 14.1323 56.0923 14.269C55.8628 14.4058 55.748 14.6011 55.748 14.855C55.748 15.0454 55.8042 15.2065 55.9165 15.3384C56.0288 15.4702 56.2217 15.6021 56.4951 15.7339C56.7734 15.8657 57.1592 16.0293 57.6523 16.2246C58.1357 16.4102 58.5532 16.6055 58.9048 16.8105C59.2612 17.0107 59.5347 17.2573 59.7251 17.5503C59.9155 17.8433 60.0107 18.2217 60.0107 18.6855Z" fill="white"/>
</svg>
