<svg width="84" height="20" viewBox="0 0 84 20" fill="none" xmlns="http://www.w3.org/2000/svg">
<path d="M8.67806 3.59367C8.98566 2.68997 10.2638 2.68998 10.5714 3.59367L11.5549 6.48313C11.6929 6.8884 12.0735 7.16091 12.5016 7.16091H15.5818C16.5617 7.16091 16.9569 8.42416 16.1517 8.98263L13.7409 10.6546C13.3741 10.909 13.2203 11.3758 13.3642 11.7985L14.3036 14.5586C14.6145 15.4718 13.5798 16.2523 12.7871 15.7025L10.1946 13.9046C9.85187 13.6668 9.39758 13.6668 9.05483 13.9046L6.46235 15.7025C5.66969 16.2523 4.63496 15.4718 4.9458 14.5586L5.88528 11.7985C6.02915 11.3758 5.87539 10.909 5.50851 10.6546L3.09777 8.98263C2.29254 8.42416 2.68772 7.16091 3.66767 7.16091H6.74788C7.17598 7.16091 7.55659 6.8884 7.69454 6.48313L8.67806 3.59367Z" fill="#FFA858"/>
<path d="M24.8612 3.73964C25.1605 2.81832 26.4639 2.81832 26.7633 3.73964L27.6504 6.46992C27.7843 6.88194 28.1682 7.16091 28.6014 7.16091H31.4722C32.4409 7.16091 32.8437 8.40051 32.06 8.96992L29.7375 10.6574C29.387 10.912 29.2403 11.3634 29.3742 11.7754L30.2613 14.5058C30.5607 15.4271 29.5062 16.1932 28.7225 15.6238L26.4 13.9364C26.0495 13.6817 25.5749 13.6817 25.2244 13.9364L22.902 15.6238C22.1183 16.1932 21.0638 15.4271 21.3632 14.5058L22.2503 11.7754C22.3841 11.3634 22.2375 10.912 21.887 10.6574L19.5645 8.96991C18.7808 8.40051 19.1835 7.16091 20.1523 7.16091H23.023C23.4563 7.16091 23.8402 6.88194 23.9741 6.46992L24.8612 3.73964Z" fill="#FFA858"/>
<path d="M41.0531 3.59367C41.3607 2.68997 42.6388 2.68998 42.9464 3.59367L43.9299 6.48313C44.0679 6.8884 44.4485 7.16091 44.8766 7.16091H47.9568C48.9367 7.16091 49.3319 8.42416 48.5267 8.98263L46.1159 10.6546C45.7491 10.909 45.5953 11.3758 45.7392 11.7985L46.6786 14.5586C46.9895 15.4718 45.9548 16.2523 45.1621 15.7025L42.5696 13.9046C42.2269 13.6668 41.7726 13.6668 41.4298 13.9046L38.8374 15.7025C38.0447 16.2523 37.01 15.4718 37.3208 14.5586L38.2603 11.7985C38.4041 11.3758 38.2504 10.909 37.8835 10.6546L35.4728 8.98263C34.6675 8.42416 35.0627 7.16091 36.0427 7.16091H39.1229C39.551 7.16091 39.9316 6.8884 40.0695 6.48313L41.0531 3.59367Z" fill="#FFA858"/>
<path d="M57.2342 3.73964C57.5336 2.81832 58.837 2.81832 59.1363 3.73964L60.0234 6.46992C60.1573 6.88194 60.5413 7.16091 60.9745 7.16091H63.8452C64.814 7.16091 65.2167 8.40051 64.433 8.96992L62.1105 10.6574C61.76 10.912 61.6134 11.3634 61.7472 11.7754L62.6344 14.5058C62.9337 15.4271 61.8792 16.1932 61.0955 15.6238L58.7731 13.9364C58.4226 13.6817 57.948 13.6817 57.5975 13.9364L55.2751 15.6238C54.4913 16.1932 53.4369 15.4271 53.7362 14.5058L54.6233 11.7754C54.7572 11.3634 54.6105 10.912 54.2601 10.6574L51.9375 8.96991C51.1538 8.40051 51.5566 7.16091 52.5253 7.16091H55.3961C55.8293 7.16091 56.2133 6.88194 56.3471 6.46992L57.2342 3.73964Z" fill="#FFA858"/>
<path d="M73.4261 3.59367C73.7337 2.68997 75.0118 2.68998 75.3194 3.59367L76.303 6.48313C76.4409 6.8884 76.8215 7.16091 77.2496 7.16091H80.3298C81.3098 7.16091 81.705 8.42416 80.8997 8.98263L78.489 10.6546C78.1221 10.909 77.9683 11.3758 78.1122 11.7985L79.0517 14.5586C79.3625 15.4718 78.3278 16.2523 77.5351 15.7025L74.9427 13.9046C74.5999 13.6668 74.1456 13.6668 73.8029 13.9046L71.2104 15.7025C70.4177 16.2523 69.383 15.4718 69.6938 14.5586L70.6333 11.7985C70.7772 11.3758 70.6234 10.909 70.2566 10.6546L67.8458 8.98263C67.0406 8.42416 67.4358 7.16091 68.4157 7.16091H71.4959C71.924 7.16091 72.3046 6.8884 72.4426 6.48313L73.4261 3.59367Z" fill="#FFA858"/>
</svg>
