<svg width="200" height="56" viewBox="0 0 200 56" fill="none" xmlns="http://www.w3.org/2000/svg">
<path d="M70.3926 27.3613V28.6416C70.3926 30.695 70.1143 32.5381 69.5576 34.1709C69.001 35.8037 68.2155 37.1953 67.2012 38.3457C66.1868 39.4837 64.9746 40.3558 63.5645 40.9619C62.1667 41.568 60.6143 41.8711 58.9072 41.8711C57.2126 41.8711 55.6602 41.568 54.25 40.9619C52.8522 40.3558 51.64 39.4837 50.6133 38.3457C49.5866 37.1953 48.7887 35.8037 48.2197 34.1709C47.6631 32.5381 47.3848 30.695 47.3848 28.6416V27.3613C47.3848 25.2956 47.6631 23.4525 48.2197 21.832C48.7764 20.1992 49.5618 18.8076 50.5762 17.6572C51.6029 16.5069 52.8151 15.6286 54.2129 15.0225C55.623 14.4164 57.1755 14.1133 58.8701 14.1133C60.5771 14.1133 62.1296 14.4164 63.5273 15.0225C64.9375 15.6286 66.1497 16.5069 67.1641 17.6572C68.1908 18.8076 68.9824 20.1992 69.5391 21.832C70.1081 23.4525 70.3926 25.2956 70.3926 27.3613ZM64.7705 28.6416V27.3242C64.7705 25.8893 64.6406 24.6276 64.3809 23.5391C64.1211 22.4505 63.7376 21.5352 63.2305 20.793C62.7233 20.0508 62.1048 19.4942 61.375 19.1231C60.6452 18.7396 59.8102 18.5479 58.8701 18.5479C57.93 18.5479 57.0951 18.7396 56.3652 19.1231C55.6478 19.4942 55.0355 20.0508 54.5283 20.793C54.0335 21.5352 53.6562 22.4505 53.3965 23.5391C53.1367 24.6276 53.0068 25.8893 53.0068 27.3242V28.6416C53.0068 30.0641 53.1367 31.3259 53.3965 32.4268C53.6562 33.5153 54.0397 34.4369 54.5469 35.1914C55.054 35.9336 55.6725 36.4964 56.4023 36.8799C57.1322 37.2634 57.9671 37.4551 58.9072 37.4551C59.8473 37.4551 60.6823 37.2634 61.4121 36.8799C62.1419 36.4964 62.7542 35.9336 63.249 35.1914C63.7438 34.4369 64.1211 33.5153 64.3809 32.4268C64.6406 31.3259 64.7705 30.0641 64.7705 28.6416ZM79.4102 25.8027V41.5H74.0664V21.4238H79.0947L79.4102 25.8027ZM85.459 21.294L85.3662 26.2481C85.1064 26.211 84.791 26.18 84.4199 26.1553C84.0612 26.1182 83.7334 26.0996 83.4365 26.0996C82.682 26.0996 82.0264 26.1986 81.4697 26.3965C80.9255 26.582 80.4678 26.8604 80.0967 27.2315C79.738 27.6026 79.4658 28.0541 79.2803 28.586C79.1071 29.1179 79.0081 29.724 78.9834 30.4043L77.9072 30.0703C77.9072 28.7715 78.0371 27.5778 78.2969 26.4893C78.5566 25.3884 78.9339 24.4297 79.4287 23.6133C79.9359 22.7969 80.5544 22.166 81.2842 21.7207C82.014 21.2754 82.849 21.0527 83.7891 21.0527C84.0859 21.0527 84.389 21.0775 84.6982 21.127C85.0075 21.1641 85.2611 21.2197 85.459 21.294ZM100.321 21.4238H105.164V40.832C105.164 42.6628 104.756 44.2152 103.939 45.4893C103.135 46.7757 102.01 47.7468 100.562 48.4024C99.1152 49.0703 97.4329 49.4043 95.5156 49.4043C94.6745 49.4043 93.7839 49.293 92.8438 49.0703C91.916 48.8477 91.0254 48.5013 90.1719 48.0313C89.3307 47.5612 88.6257 46.9675 88.0566 46.25L90.4131 43.0957C91.0316 43.8132 91.749 44.3698 92.5654 44.7656C93.3818 45.1738 94.2848 45.3779 95.2744 45.3779C96.2393 45.3779 97.0557 45.1986 97.7236 44.8399C98.3916 44.4935 98.9049 43.9802 99.2637 43.2998C99.6224 42.6319 99.8018 41.8216 99.8018 40.8692V26.0625L100.321 21.4238ZM86.8135 31.7031V31.3135C86.8135 29.7796 86.999 28.388 87.3701 27.1387C87.7536 25.877 88.2917 24.7946 88.9844 23.8916C89.6895 22.9886 90.543 22.2897 91.5449 21.7949C92.5469 21.3001 93.6787 21.0527 94.9404 21.0527C96.2764 21.0527 97.3958 21.3001 98.2988 21.7949C99.2018 22.2897 99.944 22.9948 100.525 23.9102C101.107 24.8132 101.558 25.8832 101.88 27.1201C102.214 28.3447 102.474 29.6869 102.659 31.1465V32C102.474 33.3978 102.195 34.6966 101.824 35.8965C101.453 37.0964 100.965 38.1478 100.358 39.0508C99.7523 39.9414 98.9977 40.6341 98.0947 41.1289C97.2041 41.6237 96.1403 41.8711 94.9033 41.8711C93.6663 41.8711 92.5469 41.6175 91.5449 41.1104C90.5553 40.6032 89.708 39.8919 89.0029 38.9766C88.2979 38.0612 87.7536 36.985 87.3701 35.7481C86.999 34.5111 86.8135 33.1628 86.8135 31.7031ZM92.1572 31.3135V31.7031C92.1572 32.5319 92.2376 33.305 92.3984 34.0225C92.5592 34.7399 92.8066 35.377 93.1406 35.9336C93.487 36.4779 93.9137 36.9046 94.4209 37.2139C94.9404 37.5108 95.5527 37.6592 96.2578 37.6592C97.235 37.6592 98.0329 37.4551 98.6514 37.0469C99.2699 36.6263 99.7337 36.0511 100.043 35.3213C100.352 34.5915 100.532 33.7503 100.581 32.7979V30.3672C100.556 29.5879 100.451 28.889 100.266 28.2705C100.08 27.6397 99.8203 27.1016 99.4863 26.6563C99.1523 26.211 98.7194 25.8646 98.1875 25.6172C97.6556 25.3698 97.0247 25.2461 96.2949 25.2461C95.5898 25.2461 94.9775 25.4069 94.458 25.7285C93.9508 26.0378 93.5241 26.4645 93.1777 27.0088C92.8438 27.5531 92.5902 28.1963 92.417 28.9385C92.2438 29.6683 92.1572 30.46 92.1572 31.3135ZM120.156 36.9727V28.0293C120.156 27.3861 120.051 26.8356 119.841 26.3779C119.631 25.9079 119.303 25.543 118.857 25.2832C118.424 25.0235 117.862 24.8936 117.169 24.8936C116.575 24.8936 116.062 24.9987 115.629 25.209C115.196 25.4069 114.862 25.6976 114.627 26.0811C114.392 26.4522 114.274 26.8913 114.274 27.3985H108.931C108.931 26.5449 109.129 25.7347 109.524 24.9678C109.92 24.2009 110.495 23.5267 111.25 22.9453C112.005 22.3516 112.901 21.8877 113.94 21.5537C114.992 21.2197 116.167 21.0527 117.466 21.0527C119.024 21.0527 120.41 21.3125 121.622 21.832C122.834 22.3516 123.787 23.1309 124.479 24.1699C125.185 25.209 125.537 26.5078 125.537 28.0664V36.6572C125.537 37.7582 125.605 38.6611 125.741 39.3662C125.877 40.0589 126.075 40.6651 126.335 41.1846V41.5H120.936C120.676 40.9557 120.478 40.2754 120.342 39.459C120.218 38.6302 120.156 37.8014 120.156 36.9727ZM120.861 29.2725L120.898 32.2969H117.911C117.206 32.2969 116.594 32.3773 116.074 32.5381C115.555 32.6989 115.128 32.9277 114.794 33.2246C114.46 33.5091 114.213 33.8431 114.052 34.2266C113.903 34.61 113.829 35.0306 113.829 35.4883C113.829 35.946 113.934 36.3604 114.145 36.7315C114.355 37.0902 114.658 37.3747 115.054 37.585C115.45 37.7829 115.913 37.8819 116.445 37.8819C117.249 37.8819 117.948 37.721 118.542 37.3994C119.136 37.0778 119.593 36.682 119.915 36.2119C120.249 35.7419 120.422 35.2966 120.435 34.876L121.845 37.1397C121.647 37.6468 121.375 38.1725 121.028 38.7168C120.694 39.2611 120.268 39.7744 119.748 40.2569C119.229 40.7269 118.604 41.1166 117.874 41.4258C117.144 41.7227 116.278 41.8711 115.276 41.8711C114.002 41.8711 112.846 41.6175 111.807 41.1104C110.78 40.5908 109.964 39.8796 109.357 38.9766C108.764 38.0612 108.467 37.0222 108.467 35.8594C108.467 34.808 108.665 33.874 109.061 33.0576C109.456 32.2412 110.038 31.5547 110.805 30.9981C111.584 30.4291 112.555 30.0023 113.718 29.7178C114.881 29.4209 116.229 29.2725 117.763 29.2725H120.861ZM134.889 25.71V41.5H129.545V21.4238H134.555L134.889 25.71ZM134.109 30.7569H132.662C132.662 29.2725 132.854 27.9365 133.237 26.749C133.621 25.5492 134.159 24.5287 134.852 23.6875C135.544 22.834 136.367 22.1846 137.319 21.7393C138.284 21.2816 139.36 21.0527 140.548 21.0527C141.488 21.0527 142.348 21.1888 143.127 21.461C143.906 21.7331 144.574 22.166 145.131 22.7598C145.7 23.3535 146.133 24.139 146.43 25.1162C146.739 26.0934 146.894 27.2871 146.894 28.6973V41.5H141.513V28.6787C141.513 27.7881 141.389 27.0954 141.142 26.6006C140.894 26.1058 140.529 25.7595 140.047 25.5615C139.577 25.3513 138.995 25.2461 138.303 25.2461C137.585 25.2461 136.961 25.3884 136.429 25.6729C135.909 25.9574 135.476 26.3532 135.13 26.8604C134.796 27.3552 134.542 27.9365 134.369 28.6045C134.196 29.2725 134.109 29.9899 134.109 30.7569ZM156.598 21.4238V41.5H151.235V21.4238H156.598ZM150.901 16.1914C150.901 15.4121 151.174 14.7689 151.718 14.2617C152.262 13.7546 152.992 13.501 153.907 13.501C154.81 13.501 155.534 13.7546 156.078 14.2617C156.635 14.7689 156.913 15.4121 156.913 16.1914C156.913 16.9707 156.635 17.6139 156.078 18.1211C155.534 18.6283 154.81 18.8819 153.907 18.8819C152.992 18.8819 152.262 18.6283 151.718 18.1211C151.174 17.6139 150.901 16.9707 150.901 16.1914ZM169.308 37.6963C169.963 37.6963 170.545 37.5726 171.052 37.3252C171.559 37.0654 171.955 36.7067 172.239 36.249C172.536 35.779 172.691 35.2285 172.703 34.5977H177.731C177.719 36.0078 177.342 37.2634 176.6 38.3643C175.857 39.4528 174.862 40.3125 173.612 40.9434C172.363 41.5619 170.965 41.8711 169.419 41.8711C167.86 41.8711 166.5 41.6113 165.337 41.0918C164.187 40.5723 163.228 39.8548 162.461 38.9395C161.694 38.0117 161.119 36.9356 160.735 35.711C160.352 34.474 160.16 33.1504 160.16 31.7402V31.2022C160.16 29.7796 160.352 28.4561 160.735 27.2315C161.119 25.9945 161.694 24.9183 162.461 24.0029C163.228 23.0752 164.187 22.3516 165.337 21.832C166.487 21.3125 167.836 21.0527 169.382 21.0527C171.027 21.0527 172.468 21.3682 173.705 21.999C174.954 22.6299 175.932 23.5329 176.637 24.708C177.354 25.8708 177.719 27.25 177.731 28.8457H172.703C172.691 28.1777 172.549 27.5716 172.276 27.0274C172.017 26.4831 171.633 26.0501 171.126 25.7285C170.631 25.3945 170.019 25.2276 169.289 25.2276C168.51 25.2276 167.873 25.3945 167.378 25.7285C166.883 26.0501 166.5 26.4955 166.228 27.0645C165.955 27.6211 165.764 28.2582 165.652 28.9756C165.553 29.6807 165.504 30.4229 165.504 31.2022V31.7402C165.504 32.5195 165.553 33.2679 165.652 33.9854C165.751 34.7028 165.937 35.3399 166.209 35.8965C166.493 36.4531 166.883 36.8923 167.378 37.2139C167.873 37.5355 168.516 37.6963 169.308 37.6963ZM186.174 12.9815V41.5H180.83V12.9815H186.174ZM198.828 21.4238L190.107 31.3692L185.432 36.1006L183.483 32.2412L187.194 27.5283L192.408 21.4238H198.828ZM193.28 41.5L187.343 32.2227L191.035 28.9942L199.44 41.5H193.28Z" fill="#274C5B"/>
<path d="M1.85156 42.0684H19.2919H36.7322" stroke="#7EB693" stroke-width="2" stroke-miterlimit="10"/>
<path d="M5.78906 48.5L19.2891 48.5L32.7891 48.5" stroke="#7EB693" stroke-width="2" stroke-miterlimit="10"/>
<path d="M18.7891 1.50002L18.7891 8.50002L18.7891 15.5" stroke="#7EB693" stroke-width="2" stroke-miterlimit="10"/>
<path d="M18.8672 14.7842V41.2158" stroke="#7EB693" stroke-width="2" stroke-miterlimit="10"/>
<path d="M29.9269 4.55275L18.8672 15.637" stroke="#7EB693" stroke-width="2" stroke-miterlimit="10"/>
<path d="M34.1806 8.81593L18.8672 24.1633" stroke="#7EB693" stroke-width="2" stroke-miterlimit="10"/>
<path d="M36.7329 15.6367L18.8672 32.6894" stroke="#7EB693" stroke-width="2" stroke-miterlimit="10"/>
<path d="M37.5836 23.3106L18.8672 42.0685" stroke="#7EB693" stroke-width="2" stroke-miterlimit="10"/>
<path d="M37.584 31.8369L27.375 42.0685" stroke="#7EB693" stroke-width="2" stroke-miterlimit="10"/>
<path d="M1 31.8369L11.209 42.0685" stroke="#7EB693" stroke-width="2" stroke-miterlimit="10"/>
<path d="M8.65625 4.55275L18.8652 15.637" stroke="#7EB693" stroke-width="2" stroke-miterlimit="10"/>
<path d="M4.40234 8.81593L18.865 24.1633" stroke="#7EB693" stroke-width="2" stroke-miterlimit="10"/>
<path d="M1.85156 14.7842L18.8665 32.6895" stroke="#7EB693" stroke-width="2" stroke-miterlimit="10"/>
<path d="M1 22.458L18.8657 41.2159" stroke="#7EB693" stroke-width="2" stroke-miterlimit="10"/>
<path d="M19.291 54.8579C9.19019 54.8579 1 46.4056 1 35.9772V20.0228C1 9.5963 9.19019 1.14211 19.291 1.14211C29.3937 1.14211 37.5821 9.5963 37.5821 20.0228V35.9772C37.5839 46.4056 29.3937 54.8579 19.291 54.8579Z" stroke="#7EB693" stroke-width="2" stroke-miterlimit="10"/>
</svg>
