<svg width="73" height="31" viewBox="0 0 73 31" fill="none" xmlns="http://www.w3.org/2000/svg">
<rect width="73" height="31" rx="8" fill="#274C5B"/>
<path d="M22.2104 21H20.46V16.166H15.5234V21H13.7656V10.292H15.5234V14.6719H20.46V10.292H22.2104V21ZM28.0991 12.7383C28.8218 12.7383 29.4419 12.8872 29.9595 13.1851C30.4771 13.4829 30.875 13.9053 31.1533 14.4521C31.4316 14.999 31.5708 15.6533 31.5708 16.415V17.3379H26.1582C26.1777 18.124 26.3877 18.7295 26.7881 19.1543C27.1934 19.5791 27.7598 19.7915 28.4873 19.7915C29.0049 19.7915 29.4688 19.7427 29.8789 19.645C30.2939 19.5425 30.7212 19.3936 31.1606 19.1982V20.5972C30.7554 20.7876 30.3428 20.9268 29.9229 21.0146C29.5029 21.1025 29 21.1465 28.4141 21.1465C27.6182 21.1465 26.9175 20.9927 26.312 20.6851C25.7114 20.3726 25.2402 19.9087 24.8984 19.2935C24.5615 18.6782 24.3931 17.9141 24.3931 17.001C24.3931 16.0928 24.5469 15.3213 24.8545 14.6865C25.1621 14.0518 25.5942 13.5684 26.1509 13.2363C26.7075 12.9043 27.3569 12.7383 28.0991 12.7383ZM28.0991 14.0347C27.5571 14.0347 27.1177 14.2104 26.7808 14.562C26.4487 14.9136 26.2534 15.4287 26.1948 16.1074H29.8862C29.8813 15.7021 29.813 15.3433 29.6812 15.0308C29.5542 14.7183 29.3589 14.4741 29.0952 14.2983C28.8364 14.1226 28.5044 14.0347 28.0991 14.0347ZM36.6904 12.7383C37.7158 12.7383 38.4897 12.9653 39.0122 13.4194C39.5396 13.8735 39.8032 14.5815 39.8032 15.5435V21H38.5801L38.2505 19.8501H38.1919C37.9624 20.1431 37.7256 20.3848 37.4814 20.5752C37.2373 20.7656 36.9541 20.9072 36.6318 21C36.3145 21.0977 35.9263 21.1465 35.4673 21.1465C34.9839 21.1465 34.5518 21.0586 34.1709 20.8828C33.79 20.7021 33.4897 20.4287 33.27 20.0625C33.0503 19.6963 32.9404 19.2324 32.9404 18.6709C32.9404 17.8359 33.2505 17.2085 33.8706 16.7886C34.4956 16.3687 35.438 16.1367 36.6978 16.0928L38.104 16.0415V15.6167C38.104 15.0552 37.9722 14.6548 37.7085 14.4155C37.4497 14.1763 37.0835 14.0566 36.6099 14.0566C36.2046 14.0566 35.8115 14.1152 35.4307 14.2324C35.0498 14.3496 34.6787 14.4937 34.3174 14.6646L33.7607 13.4487C34.1562 13.2388 34.6055 13.0679 35.1084 12.936C35.6162 12.8042 36.1436 12.7383 36.6904 12.7383ZM38.0967 17.1255L37.0493 17.1621C36.1899 17.1914 35.5869 17.3379 35.2402 17.6016C34.8936 17.8652 34.7202 18.2266 34.7202 18.6855C34.7202 19.0859 34.8398 19.3789 35.0791 19.5645C35.3184 19.7451 35.6333 19.8354 36.0239 19.8354C36.6196 19.8354 37.1128 19.667 37.5034 19.3301C37.8989 18.9883 38.0967 18.4878 38.0967 17.8286V17.1255ZM43.9414 21H42.2129V9.60352H43.9414V21ZM49.4199 19.7549C49.6445 19.7549 49.8667 19.7354 50.0864 19.6963C50.3062 19.6523 50.5063 19.6011 50.687 19.5425V20.8462C50.4966 20.9292 50.25 21 49.9473 21.0586C49.6445 21.1172 49.3296 21.1465 49.0024 21.1465C48.5435 21.1465 48.1309 21.0708 47.7646 20.9194C47.3984 20.7632 47.1079 20.4971 46.8931 20.1211C46.6782 19.7451 46.5708 19.2251 46.5708 18.561V14.2031H45.4648V13.4341L46.6514 12.8262L47.2153 11.0903H48.2993V12.8921H50.6211V14.2031H48.2993V18.5391C48.2993 18.9492 48.4019 19.2544 48.6069 19.4546C48.812 19.6548 49.083 19.7549 49.4199 19.7549ZM54.0562 9.60352V12.4673C54.0562 12.7651 54.0464 13.0557 54.0269 13.3389C54.0122 13.6221 53.9951 13.8418 53.9756 13.998H54.0708C54.2417 13.7148 54.4517 13.4829 54.7007 13.3022C54.9497 13.1167 55.228 12.9775 55.5356 12.8848C55.8481 12.792 56.1802 12.7456 56.5317 12.7456C57.1519 12.7456 57.6792 12.8506 58.1138 13.0605C58.5483 13.2656 58.8804 13.5854 59.1099 14.02C59.3442 14.4546 59.4614 15.0186 59.4614 15.7119V21H57.7402V16.0342C57.7402 15.4043 57.6108 14.9331 57.3521 14.6206C57.0933 14.3032 56.6929 14.1445 56.1509 14.1445C55.6284 14.1445 55.2134 14.2544 54.9058 14.4741C54.603 14.689 54.3857 15.0088 54.2539 15.4336C54.1221 15.8535 54.0562 16.3662 54.0562 16.9717V21H52.335V9.60352H54.0562Z" fill="white"/>
</svg>
