<svg width="84" height="19" viewBox="0 0 84 19" fill="none" xmlns="http://www.w3.org/2000/svg">
<path d="M8.67806 3.09367C8.98566 2.18997 10.2638 2.18998 10.5714 3.09367L11.5549 5.98313C11.6929 6.3884 12.0735 6.66091 12.5016 6.66091H15.5818C16.5617 6.66091 16.9569 7.92416 16.1517 8.48263L13.7409 10.1546C13.3741 10.409 13.2203 10.8758 13.3642 11.2985L14.3036 14.0586C14.6145 14.9718 13.5798 15.7523 12.7871 15.2025L10.1946 13.4046C9.85187 13.1668 9.39758 13.1668 9.05483 13.4046L6.46235 15.2025C5.66969 15.7523 4.63496 14.9718 4.9458 14.0586L5.88528 11.2985C6.02915 10.8758 5.87539 10.409 5.50851 10.1546L3.09777 8.48263C2.29254 7.92416 2.68772 6.66091 3.66767 6.66091H6.74788C7.17598 6.66091 7.55659 6.3884 7.69454 5.98313L8.67806 3.09367Z" fill="#FFA858"/>
<path d="M24.8612 3.23964C25.1605 2.31832 26.4639 2.31832 26.7633 3.23964L27.6504 5.96992C27.7843 6.38194 28.1682 6.66091 28.6014 6.66091H31.4722C32.4409 6.66091 32.8437 7.90051 32.06 8.46992L29.7375 10.1574C29.387 10.412 29.2403 10.8634 29.3742 11.2754L30.2613 14.0058C30.5607 14.9271 29.5062 15.6932 28.7225 15.1238L26.4 13.4364C26.0495 13.1817 25.5749 13.1817 25.2244 13.4364L22.902 15.1238C22.1183 15.6932 21.0638 14.9271 21.3632 14.0058L22.2503 11.2754C22.3841 10.8634 22.2375 10.412 21.887 10.1574L19.5645 8.46991C18.7808 7.90051 19.1835 6.66091 20.1523 6.66091H23.023C23.4563 6.66091 23.8402 6.38194 23.9741 5.96992L24.8612 3.23964Z" fill="#FFA858"/>
<path d="M41.0531 3.09367C41.3607 2.18997 42.6388 2.18998 42.9464 3.09367L43.9299 5.98313C44.0679 6.3884 44.4485 6.66091 44.8766 6.66091H47.9568C48.9367 6.66091 49.3319 7.92416 48.5267 8.48263L46.1159 10.1546C45.7491 10.409 45.5953 10.8758 45.7392 11.2985L46.6786 14.0586C46.9895 14.9718 45.9548 15.7523 45.1621 15.2025L42.5696 13.4046C42.2269 13.1668 41.7726 13.1668 41.4298 13.4046L38.8374 15.2025C38.0447 15.7523 37.01 14.9718 37.3208 14.0586L38.2603 11.2985C38.4041 10.8758 38.2504 10.409 37.8835 10.1546L35.4728 8.48263C34.6675 7.92416 35.0627 6.66091 36.0427 6.66091H39.1229C39.551 6.66091 39.9316 6.3884 40.0695 5.98313L41.0531 3.09367Z" fill="#FFA858"/>
<path d="M57.2342 3.23964C57.5336 2.31832 58.837 2.31832 59.1363 3.23964L60.0234 5.96992C60.1573 6.38194 60.5413 6.66091 60.9745 6.66091H63.8452C64.814 6.66091 65.2167 7.90051 64.433 8.46992L62.1105 10.1574C61.76 10.412 61.6134 10.8634 61.7472 11.2754L62.6344 14.0058C62.9337 14.9271 61.8792 15.6932 61.0955 15.1238L58.7731 13.4364C58.4226 13.1817 57.948 13.1817 57.5975 13.4364L55.2751 15.1238C54.4913 15.6932 53.4369 14.9271 53.7362 14.0058L54.6233 11.2754C54.7572 10.8634 54.6105 10.412 54.2601 10.1574L51.9375 8.46991C51.1538 7.90051 51.5566 6.66091 52.5253 6.66091H55.3961C55.8293 6.66091 56.2133 6.38194 56.3471 5.96992L57.2342 3.23964Z" fill="#FFA858"/>
<path d="M73.4261 3.09367C73.7337 2.18997 75.0118 2.18998 75.3194 3.09367L76.303 5.98313C76.4409 6.3884 76.8215 6.66091 77.2496 6.66091H80.3298C81.3098 6.66091 81.705 7.92416 80.8997 8.48263L78.489 10.1546C78.1221 10.409 77.9683 10.8758 78.1122 11.2985L79.0517 14.0586C79.3625 14.9718 78.3278 15.7523 77.5351 15.2025L74.9427 13.4046C74.5999 13.1668 74.1456 13.1668 73.8029 13.4046L71.2104 15.2025C70.4177 15.7523 69.383 14.9718 69.6938 14.0586L70.6333 11.2985C70.7772 10.8758 70.6234 10.409 70.2566 10.1546L67.8458 8.48263C67.0406 7.92416 67.4358 6.66091 68.4157 6.66091H71.4959C71.924 6.66091 72.3046 6.3884 72.4426 5.98313L73.4261 3.09367Z" fill="#FFA858"/>
</svg>
