<svg width="27" height="24" viewBox="0 0 27 24" fill="none" xmlns="http://www.w3.org/2000/svg">
<path d="M11.5679 23.0001C12.2429 23.0001 12.7901 22.4529 12.7901 21.7779C12.7901 21.1029 12.2429 20.5557 11.5679 20.5557C10.8929 20.5557 10.3457 21.1029 10.3457 21.7779C10.3457 22.4529 10.8929 23.0001 11.5679 23.0001Z" fill="white" stroke="white" stroke-width="1.5" stroke-linecap="round" stroke-linejoin="round"/>
<path d="M20.1246 23.0001C20.7996 23.0001 21.3468 22.4529 21.3468 21.7779C21.3468 21.1029 20.7996 20.5557 20.1246 20.5557C19.4496 20.5557 18.9023 21.1029 18.9023 21.7779C18.9023 22.4529 19.4496 23.0001 20.1246 23.0001Z" fill="white" stroke="white" stroke-width="1.5" stroke-linecap="round" stroke-linejoin="round"/>
<path d="M1.79102 1H5.57291L8.40933 17.0731H23.5369" stroke="white" stroke-width="2" stroke-linecap="round" stroke-linejoin="round"/>
<path d="M7.90124 13.1837L23.1484 13.2907C23.2578 13.2908 23.3637 13.2529 23.4483 13.1837C23.5329 13.1144 23.5908 13.0179 23.6123 12.9107L25.3142 4.40145C25.3279 4.33283 25.3262 4.26203 25.3093 4.19414C25.2923 4.12625 25.2605 4.06297 25.2161 4.00886C25.1717 3.95476 25.1159 3.91118 25.0526 3.88128C24.9894 3.85138 24.9203 3.83589 24.8503 3.83594L6.35741 3.83594" stroke="white" stroke-width="2" stroke-linecap="round" stroke-linejoin="round"/>
</svg>
